<?xml version="1.0" encoding="utf-8"?>
<svg viewBox="0 0 613.65332 571.61334" height="571.61334" width="613.65332" id="svg2" version="1.1" xmlns="http://www.w3.org/2000/svg">
  <g transform="matrix(1.3333333,0,0,-1.3333333,0,571.61333)" id="g10">
    <g transform="scale(0.1)" id="g12">
      <path id="path14" style="fill-opacity: 1; fill-rule: nonzero; stroke: none; fill: rgb(209, 209, 209);" d="M 3928.43,2267.69 C 4827.11,1748.93 4827.11,907.84 3928.41,389.082 3029.73,-129.691 1572.69,-129.691 674.008,389.07 c -898.68,518.762 -898.672,1359.85 0.012,1878.62 898.68,518.76 2355.73,518.76 3254.41,0"/>
      <path id="path16" style="fill:#dadbd8;fill-opacity:1;fill-rule:nonzero;stroke:none" d="m 4229.17,1293.99 c 224.67,-129.73 224.67,-340.041 0,-469.771 -224.69,-129.719 -588.97,-129.719 -813.66,0 -224.67,129.722 -224.67,340.041 0,469.761 224.69,129.72 588.97,129.72 813.66,0.01"/>
      <path id="path18" style="fill:#dadbd8;fill-opacity:1;fill-rule:nonzero;stroke:none" d="M 1762.58,341.359 335.34,1165.38 c -23.418,13.52 -23.418,35.45 0,48.97 l 2063.37,1191.28 c 23.42,13.52 61.38,13.52 84.8,0 l 1426.88,-823.81 c 23.42,-13.52 23.42,-35.44 0.01,-48.97 L 1847.39,341.371 c -23.41,-13.531 -61.38,-13.531 -84.81,-0.012"/>
      <path id="path20" style="fill:#26b6a6;fill-opacity:1;fill-rule:nonzero;stroke:none" d="m 4112.72,1249.58 c -12.3,84.39 19.15,405.94 90.74,528.29 71.59,122.34 190.46,250.84 293.15,231.65 95.63,-17.87 103.19,-138.81 4.23,-234.12 -98.97,-95.3 -250.59,-219.01 -279.21,-362.98 l -78,-245.1 -30.91,82.26"/>
      <path id="path22" style="fill-opacity: 1; fill-rule: nonzero; stroke: none; fill: rgb(29, 117, 179);" d="m 4143.63,1167.32 -30.91,82.26 c -1.74,11.95 -2.61,28.65 -2.6,48.88 0.01,122.58 31.89,374.39 93.34,479.41 66.76,114.1 174.67,233.57 272.21,233.57 7.04,0 14.02,-0.63 20.94,-1.92 49.22,-9.2 75.11,-45.7 75.15,-91.95 0.05,-43.62 -22.89,-95.91 -70.92,-142.17 -98.97,-95.3 -250.59,-219.01 -279.21,-362.98 l -78,-245.1"/>
      <path id="path24" style="fill:#ffffff;fill-opacity:1;fill-rule:nonzero;stroke:none" d="m 4135.61,1276.06 c 2.64,0.7 4.59,3.08 4.63,5.93 4.42,296.62 194.08,571.35 323.49,647.87 2.96,1.76 3.94,5.58 2.19,8.54 -1.73,2.95 -5.5,4.01 -8.53,2.19 -131.88,-77.97 -325.13,-357.29 -329.61,-658.42 -0.05,-3.43 2.69,-6.26 6.13,-6.32 l 1.7,0.21"/>
      <path id="path26" style="fill-opacity: 1; fill-rule: nonzero; stroke: none; fill: rgb(29, 117, 179);" d="m 4182,1121.24 c 6.64,49.41 41.2,134.69 119.4,219.08 95.78,103.35 254.87,160.18 276.99,220.27 26.57,72.17 -34.09,121.45 -137.43,88.6 -138.95,-44.17 -293.94,-217.64 -291.97,-440.76 l 33.01,-87.19"/>
      <path id="path28" style="fill:#ffffff;fill-opacity:1;fill-rule:nonzero;stroke:none" d="m 4154.13,1168.01 c 2.31,0.53 4.22,2.36 4.71,4.85 52.36,259.67 261.98,399.53 347.53,423.57 3.31,0.92 5.25,4.37 4.32,7.68 -0.93,3.33 -4.24,5.28 -7.69,4.32 -94.61,-26.58 -302.94,-168.06 -356.37,-433.11 -0.68,-3.37 1.51,-6.66 4.88,-7.34 l 2.62,0.03"/>
      <path id="path30" style="fill-opacity: 1; fill-rule: nonzero; stroke: none; fill: rgb(29, 117, 179);" d="m 1264.36,4049.45 -76.17,-43.98 c 0.38,3.4 0.64,6.78 0.64,10.08 v 22.07 c 0,39.27 -27.57,55.18 -61.57,35.55 -13.78,-7.95 -26.45,-20.55 -36.71,-35.29 -5.56,49.38 -44.31,67.77 -91.362,40.61 -50.875,-29.38 -92.125,-100.82 -92.125,-159.57 v -33.01 c 0,-15.21 2.816,-28.03 7.8,-38.25 l -63.269,-36.52 c -18.864,-10.89 -34.156,-37.39 -34.156,-59.16 0,-21.78 15.292,-30.62 34.156,-19.72 l 412.766,238.31 c 18.86,10.89 34.16,37.38 34.16,59.16 0,21.78 -15.3,30.61 -34.16,19.72"/>
      <path id="path32" style="fill-opacity: 1; fill-rule: nonzero; stroke: none; fill: rgb(29, 117, 179);" d="m 302.574,3951.19 42.016,32.35 v 92.57 c 0,73.37 58.531,158.54 122.074,195.24 63.551,36.68 115.066,6.94 115.066,-66.44 v -13.44 c 14.418,22.4 33.032,41.67 53.391,53.43 45.734,26.4 82.805,5 82.805,-47.81 v -6.1 l 58.586,33.82 c 30.109,17.39 54.523,3.29 54.523,-31.48 0,-34.77 -24.414,-77.06 -54.523,-94.44 L 302.574,3825.27 c -30.113,-17.39 -54.527,-3.3 -54.527,31.47 0,34.78 24.414,77.06 54.527,94.45"/>
      <path id="path34" style="fill:#273e47;fill-opacity:1;fill-rule:nonzero;stroke:none" d="m 423.414,1278.77 c 0.004,-27.65 20.699,-62.01 46.223,-76.74 L 1764.55,454.398 c 25.53,-14.726 66.91,-14.726 92.43,0 L 3776.1,1562.29 c 25.52,14.74 46.21,49.1 46.22,76.74 0,27.65 -20.69,62.02 -46.22,76.75 L 2481.18,2463.4 c -25.52,14.74 -66.91,14.74 -92.43,0 L 469.625,1355.51 c -25.523,-14.73 -46.211,-49.09 -46.211,-76.74"/>
      <path id="path36" style="fill:#17282f;fill-opacity:1;fill-rule:nonzero;stroke:none" d="M 1810.79,543.391 V 443.379 c -16.76,0 -33.51,3.633 -46.21,11 L 469.609,1202.02 c -25.507,14.73 -46.211,49.1 -46.211,76.74 0,25.94 18.25,57.74 41.52,73.76 -20.707,-14.84 -19.105,-36.62 4.691,-50.39 L 1764.58,554.492 c 12.7,-7.371 29.45,-11.101 46.21,-11.101"/>
      <path id="path38" style="fill:#33535f;fill-opacity:1;fill-rule:nonzero;stroke:none" d="m 380.059,1353.86 c -23.938,13.83 -43.348,48.92 -43.348,78.4 l -0.012,1545.29 c 0,29.48 20.696,65.32 46.219,80.05 L 2302.03,4165.49 c 25.53,14.74 65.63,15.48 89.58,1.65 23.94,-13.82 43.36,-48.92 43.36,-78.39 v -1545.3 c 0,-29.48 -20.7,-65.31 -46.22,-80.05 L 469.625,1355.51 c -25.523,-14.73 -65.625,-15.47 -89.566,-1.65"/>
      <path id="path40" style="fill:#17282f;fill-opacity:1;fill-rule:nonzero;stroke:none" d="m 464.172,1352.72 c -25.508,-11.95 -61.797,-11.73 -84.106,1.18 -23.906,13.77 -43.332,48.88 -43.332,78.34 V 2977.6 c 0,14.72 5.121,31.05 13.555,45.46 l 86.664,-49.95 v -0.1 c -8.324,-14.52 -13.555,-30.74 -13.555,-45.47 V 1382.18 c 0,-27.32 17.825,-39.59 40.774,-29.46"/>
      <path id="path42" style="fill:#273e47;fill-opacity:1;fill-rule:nonzero;stroke:none" d="M 423.41,2927.5 V 1382.2 c 0,-29.48 20.692,-41.42 46.215,-26.69 L 2388.75,2463.4 c 25.52,14.74 46.22,50.57 46.22,80.05 v 1545.3 c 0,29.47 -20.7,41.42 -46.22,26.68 L 469.625,3007.54 c -25.523,-14.73 -46.215,-50.57 -46.215,-80.04"/>
      <path id="path44" style="fill:#33535f;fill-opacity:1;fill-rule:nonzero;stroke:none" d="M 469.625,1302.15 1764.55,554.531 c 25.53,-14.742 66.91,-14.742 92.43,0 L 3776.1,1662.42 c 25.53,14.73 25.53,38.63 0,53.36 L 2481.18,2463.4 c -25.52,14.74 -66.91,14.74 -92.43,0 L 469.625,1355.51 c -25.523,-14.73 -25.523,-38.62 0,-53.36"/>
      <path id="path46" style="fill:#26b6a6;fill-opacity:1;fill-rule:nonzero;stroke:none" d="M 494.484,2948.2 2350.05,4019.14 c 15.32,8.84 27.73,1.67 27.73,-16.01 V 2577.37 c 0,-17.68 -12.41,-39.19 -27.73,-48.03 L 494.484,1458.42 c -15.312,-8.84 -27.73,-1.67 -27.73,16.01 v 1425.74 c 0,17.68 12.418,39.19 27.73,48.03"/>
      <path id="path48" style="fill-opacity: 1; fill-rule: nonzero; stroke: none; fill: rgb(8, 99, 145);" d="m 482.102,1454.64 c -9.102,0 -15.348,7.25 -15.348,19.79 v 1425.74 c 0,17.68 12.418,39.19 27.73,48.03 L 2350.05,4019.14 c 4.45,2.57 8.66,3.79 12.38,3.79 9.11,0 15.35,-7.26 15.35,-19.8 V 2577.37 c 0,-17.68 -12.41,-39.19 -27.73,-48.03 l -317.91,-183.48 c 7.74,18.88 14.7,37.31 20.9,55.35 39.15,113.73 49.36,200.79 49.36,278.27 v 0 0 c 0,114.2 -21.25,158.06 -37.83,205.11 -13.2,37.43 -22.51,79.81 -22.51,140.18 0,134.02 48.61,246.16 48.61,246.16 v 0 0 l -90.63,140.32 c 0,0.01 0,0.01 0,0.01 v 0 0 l -0.02,0.01 v 0 0 l -143.07,82.59 c -0.27,-0.25 -0.53,-0.48 -0.8,-0.72 -91.23,-81.67 -175.29,-113.81 -246.53,-113.81 -30.57,0 -58.78,5.92 -84.18,16.37 l -50.31,29.04 v 0 c -85.68,-165.12 -222.87,-330.93 -381.73,-371.7 l -90.61,-244.97 v 0 0 0 c 0,0 48.61,-56.01 48.61,-190.03 0,-60.41 -9.33,-113.51 -22.55,-166.17 -16.55,-66.22 -37.858,-134.64 -37.858,-248.85 v 0 0 0 0 c 0,-77.49 10.218,-152.69 49.398,-221.29 23.51,-41.12 57.86,-75.64 104.53,-102.5 7.45,-4.3 22.08,-12.74 39.34,-22.71 l -689.776,-398.1 c -4.449,-2.57 -8.656,-3.78 -12.382,-3.78 m 687.018,472.69 c -27.4,60.74 -35.04,126.09 -35.04,193.1 0,49.13 3.95,89.79 9.76,125.44 -5.8,-35.65 -9.73,-76.3 -9.73,-125.44 v 0 0 c 0,-66.99 7.63,-132.34 35.01,-193.1 m 15.81,502.13 c 5.89,33.62 9.48,68.38 9.48,105.98 v 0 0 0 0 c 0,134.02 -48.61,190.03 -48.61,190.03 l 74.5,201.24 -74.46,-201.28 v 0 c 0,0 48.61,-56.01 48.61,-190.03 0,-37.57 -3.61,-72.34 -9.52,-105.94 m 567.7,867.23 c -18.71,0 -36.55,2.22 -53.39,6.34 16.85,-4.12 34.66,-6.34 53.37,-6.34 0.01,0 0.02,0 0.03,0 v 0 0 c 0.02,0 0.05,0 0.07,0 17.31,0.01 35.38,1.91 54.12,5.96 -18.77,-4.06 -36.87,-5.96 -54.2,-5.96 m -149.44,17.42 c 5.17,9.33 10.19,18.68 15.04,28.03 v 0 0 0 0 c -4.85,-9.36 -9.86,-18.7 -15.04,-28.03"/>
      <path id="path50" style="fill:#273e47;fill-opacity:1;fill-rule:nonzero;stroke:none" d="M 619.934,1342.16 2411.87,2376.61 c 12.77,7.37 33.45,7.37 46.21,0 l 84.12,-48.57 c 12.77,-7.36 12.77,-19.31 0,-26.67 L 750.02,1267.07 c -12.758,-7.37 -33.45,-7.37 -46.215,0 l -83.867,48.41 c -12.762,7.37 -12.762,19.32 -0.004,26.68"/>
      <path id="path52" style="fill:#17282f;fill-opacity:1;fill-rule:nonzero;stroke:none" d="m 836.73,1217.01 1791.91,1034.46 c 12.76,7.37 33.46,7.37 46.22,0 l 517.39,-298.73 c 12.77,-7.37 12.77,-19.31 0,-26.68 L 1402.22,892.91 c -12.77,-7.359 -33.48,-7.398 -46.26,-0.07 L 836.773,1190.4 c -12.789,7.33 -12.804,19.24 -0.043,26.61"/>
      <path id="path54" style="fill:#33535f;fill-opacity:1;fill-rule:nonzero;stroke:none" d="m 1784.02,1671.73 c 2.34,-1.35 6.2,-1.33 8.59,0.05 l 56.41,32.57 c 2.4,1.39 2.45,3.61 0.09,4.96 l -59.54,34.38 c -2.35,1.36 -6.19,1.33 -8.59,-0.05 l -56.42,-32.58 c -2.39,-1.38 -2.43,-3.59 -0.09,-4.95 l 59.55,-34.38 m 673.4,414.02 c 2.34,-1.36 6.19,-1.35 8.58,0.04 l 56.42,32.57 c 2.4,1.39 2.44,3.61 0.09,4.97 l -15.85,9.15 c -2.35,1.35 -6.19,1.33 -8.6,-0.05 l -56.41,-32.58 c -2.4,-1.38 -2.43,-3.6 -0.09,-4.96 l 15.86,-9.14 m 471.31,-171.9 56.41,32.58 c 2.4,1.38 2.44,3.6 0.09,4.96 l -59.54,34.37 c -2.34,1.36 -6.2,1.33 -8.59,-0.05 l -56.43,-32.56 c -2.39,-1.39 -2.43,-3.61 -0.08,-4.97 l 59.54,-34.38 c 2.35,-1.35 6.19,-1.33 8.6,0.05 m -181.32,194.89 c 2.34,-1.36 6.19,-1.33 8.59,0.05 l 56.42,32.57 c 2.39,1.39 2.43,3.61 0.09,4.96 l -59.54,34.38 c -2.35,1.36 -6.21,1.34 -8.6,-0.05 l -56.42,-32.57 c -2.4,-1.38 -2.44,-3.61 -0.08,-4.96 l 59.54,-34.38 m -125.08,72.22 c 2.34,-1.36 6.19,-1.34 8.58,0.05 l 56.43,32.56 c 2.39,1.39 2.43,3.61 0.08,4.97 l -15.85,9.15 c -2.34,1.35 -6.19,1.33 -8.58,-0.05 l -56.43,-32.57 c -2.39,-1.39 -2.43,-3.61 -0.08,-4.97 l 15.85,-9.14 m -247.37,-142.83 c 2.34,-1.35 6.19,-1.33 8.59,0.05 l 56.42,32.58 c 2.39,1.38 2.43,3.6 0.09,4.96 l -15.85,9.15 c -2.36,1.36 -6.21,1.34 -8.6,-0.05 l -56.41,-32.57 c -2.41,-1.38 -2.45,-3.61 -0.09,-4.96 l 15.85,-9.16 m -426.03,-271.19 c 2.35,-1.35 6.19,-1.33 8.6,0.05 l 56.41,32.58 c 2.4,1.38 2.43,3.6 0.09,4.96 l -59.55,34.38 c -2.35,1.35 -6.19,1.32 -8.59,-0.06 l -56.42,-32.57 c -2.39,-1.38 -2.43,-3.6 -0.08,-4.96 l 59.54,-34.38 m -82.46,-47.6 c 2.35,-1.36 6.2,-1.34 8.59,0.05 l 56.42,32.57 c 2.4,1.38 2.44,3.61 0.09,4.96 l -59.54,34.38 c -2.35,1.35 -6.2,1.33 -8.6,-0.05 l -56.41,-32.57 c -2.4,-1.39 -2.44,-3.61 -0.08,-4.97 l 59.53,-34.37 m 348.06,200.94 c 2.35,-1.35 6.2,-1.33 8.6,0.05 l 56.41,32.58 c 2.4,1.38 2.44,3.61 0.09,4.96 l -59.55,34.38 c -2.34,1.35 -6.19,1.33 -8.59,-0.05 l -56.42,-32.58 c -2.39,-1.38 -2.44,-3.6 -0.08,-4.96 l 59.54,-34.38 m -183.14,-105.73 c 2.35,-1.36 6.19,-1.34 8.59,0.05 l 56.42,32.57 c 2.4,1.38 2.43,3.61 0.08,4.96 l -59.53,34.38 c -2.36,1.35 -6.2,1.33 -8.6,-0.05 l -56.42,-32.57 c -2.39,-1.38 -2.43,-3.61 -0.08,-4.97 l 59.54,-34.37 m 265.6,153.35 c 2.34,-1.36 6.2,-1.34 8.59,0.05 l 56.42,32.56 c 2.39,1.39 2.43,3.61 0.09,4.97 l -59.55,34.38 c -2.35,1.35 -6.2,1.33 -8.59,-0.06 l -56.42,-32.57 c -2.39,-1.38 -2.44,-3.61 -0.09,-4.96 l 59.55,-34.37 m -164.91,-95.21 c 2.34,-1.36 6.19,-1.35 8.59,0.04 l 56.42,32.57 c 2.39,1.39 2.43,3.61 0.08,4.96 l -59.54,34.38 c -2.35,1.36 -6.2,1.34 -8.6,-0.05 l -56.41,-32.57 c -2.4,-1.39 -2.44,-3.61 -0.09,-4.96 l 59.55,-34.37 m 407.79,260.66 c 2.35,-1.36 6.19,-1.34 8.59,0.04 l 56.42,32.58 c 2.4,1.38 2.43,3.61 0.09,4.96 l -15.85,9.15 c -2.36,1.36 -6.2,1.34 -8.6,-0.05 l -56.41,-32.57 c -2.39,-1.38 -2.43,-3.6 -0.09,-4.96 l 15.85,-9.15 m -414.01,-683.03 56.41,32.57 c 2.4,1.38 2.44,3.6 0.09,4.96 l -59.54,34.38 c -2.36,1.35 -6.2,1.33 -8.6,-0.05 l -56.42,-32.58 c -2.39,-1.38 -2.43,-3.6 -0.08,-4.96 l 59.54,-34.38 c 2.35,-1.35 6.19,-1.33 8.6,0.06 m -164.92,-95.21 56.42,32.57 c 2.4,1.38 2.44,3.6 0.09,4.96 l -59.55,34.37 c -2.34,1.36 -6.19,1.34 -8.59,-0.05 l -56.42,-32.57 c -2.4,-1.38 -2.43,-3.6 -0.08,-4.96 l 59.54,-34.38 c 2.35,-1.35 6.2,-1.33 8.59,0.06 m 82.45,47.6 56.43,32.57 c 2.39,1.39 2.43,3.61 0.08,4.96 l -59.54,34.38 c -2.35,1.36 -6.19,1.33 -8.59,-0.05 L 1975.35,1442 c -2.39,-1.38 -2.44,-3.61 -0.08,-4.96 l 59.53,-34.38 c 2.36,-1.36 6.2,-1.33 8.59,0.05 m -329.82,-190.42 56.42,32.57 c 2.4,1.38 2.44,3.6 0.08,4.96 l -59.54,34.37 c -2.35,1.36 -6.19,1.34 -8.59,-0.04 l -56.42,-32.58 c -2.39,-1.38 -2.43,-3.6 -0.08,-4.96 l 59.54,-34.38 c 2.35,-1.35 6.19,-1.33 8.59,0.06 m 164.92,95.21 56.41,32.57 c 2.4,1.39 2.44,3.6 0.09,4.96 l -59.54,34.38 c -2.35,1.35 -6.2,1.33 -8.59,-0.05 l -56.42,-32.58 c -2.4,-1.37 -2.44,-3.6 -0.09,-4.96 l 59.54,-34.37 c 2.35,-1.36 6.2,-1.34 8.6,0.05 m -82.46,-47.61 56.42,32.58 c 2.39,1.38 2.43,3.59 0.09,4.95 l -59.55,34.38 c -2.34,1.36 -6.19,1.34 -8.59,-0.05 l -56.42,-32.57 c -2.4,-1.39 -2.43,-3.6 -0.09,-4.96 l 59.55,-34.38 c 2.35,-1.36 6.19,-1.33 8.59,0.05 m 776.92,453.46 c 2.34,-1.35 6.19,-1.33 8.59,0.05 l 56.42,32.58 c 2.4,1.38 2.43,3.61 0.08,4.96 l -59.54,34.37 c -2.35,1.36 -6.2,1.34 -8.59,-0.05 l -56.42,-32.56 c -2.4,-1.39 -2.44,-3.61 -0.08,-4.97 l 59.54,-34.38 m -364.64,-215.43 56.42,32.58 c 2.4,1.38 2.43,3.6 0.09,4.95 l -59.55,34.38 c -2.34,1.36 -6.19,1.34 -8.59,-0.04 l -56.42,-32.58 c -2.4,-1.38 -2.43,-3.6 -0.08,-4.96 l 59.54,-34.38 c 2.35,-1.35 6.19,-1.33 8.59,0.05 m 470.44,369.83 56.42,32.57 c 2.4,1.38 2.43,3.61 0.08,4.96 l -59.53,34.38 c -2.35,1.36 -6.2,1.33 -8.59,-0.05 l -56.42,-32.57 c -2.4,-1.39 -2.44,-3.61 -0.1,-4.96 l 59.55,-34.38 c 2.35,-1.36 6.19,-1.33 8.59,0.05 m 76.47,-49.16 c 2.34,-1.36 6.19,-1.33 8.58,0.05 l 56.43,32.57 c 2.39,1.39 2.43,3.6 0.09,4.97 l -59.55,34.37 c -2.35,1.36 -6.19,1.33 -8.59,-0.05 l -56.42,-32.58 c -2.39,-1.37 -2.43,-3.6 -0.09,-4.95 l 59.55,-34.38 m -464.45,-273.06 164.91,95.21 c 2.4,1.39 2.44,3.61 0.09,4.96 l -59.54,34.38 c -2.35,1.36 -6.19,1.34 -8.6,-0.05 l -164.91,-95.22 c -2.4,-1.38 -2.44,-3.6 -0.09,-4.96 l 59.54,-34.37 c 2.36,-1.35 6.2,-1.34 8.6,0.05 m 203.1,313.7 56.42,32.57 c 2.4,1.39 2.43,3.61 0.1,4.97 l -59.55,34.37 c -2.36,1.36 -6.2,1.34 -8.6,-0.05 l -56.41,-32.57 c -2.41,-1.39 -2.43,-3.61 -0.09,-4.97 l 59.54,-34.36 c 2.35,-1.37 6.19,-1.34 8.59,0.04 m 352.4,7.02 56.41,32.57 c 2.4,1.39 2.44,3.61 0.09,4.96 l -59.54,34.38 c -2.35,1.35 -6.19,1.33 -8.6,-0.05 l -56.41,-32.57 c -2.39,-1.38 -2.44,-3.61 -0.09,-4.97 l 59.55,-34.37 c 2.35,-1.36 6.19,-1.34 8.59,0.05 m -182.71,-130.04 c -2.35,1.35 -6.2,1.33 -8.59,-0.05 l -56.42,-32.58 c -2.4,-1.38 -2.43,-3.6 -0.09,-4.96 l 59.54,-34.38 c 2.36,-1.35 6.2,-1.32 8.6,0.06 l 56.41,32.57 c 2.41,1.38 2.44,3.6 0.09,4.96 l -59.54,34.38 m -295.11,-170.39 c -2.35,1.36 -6.19,1.34 -8.59,-0.05 l -69.44,-40.09 c -2.39,-1.38 -2.44,-3.6 -0.09,-4.95 l 59.55,-34.38 c 2.34,-1.36 6.2,-1.33 8.59,0.05 l 69.44,40.09 c 2.4,1.38 2.44,3.6 0.08,4.96 l -59.54,34.37 M 1496.14,1062.2 c -2.34,1.35 -6.19,1.33 -8.59,-0.05 l -69.43,-40.09 c -2.4,-1.39 -2.44,-3.61 -0.09,-4.96 l 59.54,-34.381 c 2.35,-1.36 6.2,-1.328 8.59,0.051 l 69.44,40.09 c 2.39,1.39 2.44,3.6 0.09,4.96 l -59.55,34.38 m 681.36,393.38 c -2.35,1.36 -6.19,1.33 -8.59,-0.05 l -69.44,-40.09 c -2.4,-1.39 -2.44,-3.61 -0.09,-4.96 l 59.55,-34.38 c 2.34,-1.36 6.19,-1.33 8.59,0.05 l 69.43,40.1 c 2.4,1.38 2.44,3.59 0.09,4.95 l -59.54,34.38 m -585.88,-338.26 c -2.35,1.36 -6.2,1.34 -8.59,-0.04 l -69.44,-40.1 c -2.4,-1.38 -2.44,-3.6 -0.08,-4.96 l 59.53,-34.38 c 2.36,-1.35 6.2,-1.33 8.6,0.06 l 69.44,40.09 c 2.39,1.38 2.43,3.6 0.08,4.96 l -59.54,34.37 m 490.41,283.14 c -2.36,1.35 -6.2,1.33 -8.6,-0.05 l -464.36,-268.1 c -2.39,-1.39 -2.44,-3.61 -0.09,-4.96 l 59.55,-34.38 c 2.34,-1.36 6.19,-1.34 8.59,0.05 l 464.36,268.09 c 2.4,1.39 2.44,3.61 0.08,4.97 l -59.53,34.38 m 399.26,230.51 c -2.35,1.36 -6.2,1.33 -8.59,-0.05 l -86.81,-50.11 c -2.39,-1.39 -2.43,-3.61 -0.08,-4.96 l 59.55,-34.38 c 2.34,-1.36 6.19,-1.33 8.59,0.05 l 86.8,50.12 c 2.39,1.38 2.43,3.59 0.08,4.95 l -59.54,34.38 M 2272.98,1510.7 c -2.35,1.36 -6.2,1.33 -8.59,-0.05 l -69.44,-40.09 c -2.4,-1.38 -2.44,-3.61 -0.09,-4.96 l 59.54,-34.37 c 2.35,-1.36 6.2,-1.34 8.59,0.04 l 69.44,40.09 c 2.4,1.38 2.44,3.61 0.09,4.96 l -59.54,34.38 m 879.77,439.18 -144.61,83.49 c -2.34,1.36 -6.19,1.34 -8.59,-0.04 l -56.42,-32.58 c -2.39,-1.38 -2.43,-3.61 -0.09,-4.96 l 144.61,-83.49 c 2.35,-1.36 6.19,-1.33 8.59,0.04 l 56.42,32.58 c 2.39,1.38 2.43,3.61 0.09,4.96 m -142,-13.22 c -2.35,1.35 -6.2,1.33 -8.6,-0.05 l -56.41,-32.58 c -2.39,-1.38 -2.44,-3.61 -0.09,-4.96 l 59.54,-34.37 c 2.36,-1.36 6.2,-1.34 8.6,0.04 l 56.41,32.57 c 2.4,1.39 2.43,3.61 0.09,4.97 l -59.54,34.38 M 2581.1,1688.6 c -2.34,1.36 -6.19,1.33 -8.59,-0.05 l -56.42,-32.57 c -2.39,-1.39 -2.43,-3.61 -0.09,-4.96 l 59.54,-34.38 c 2.36,-1.36 6.2,-1.34 8.6,0.05 l 56.41,32.57 c 2.41,1.39 2.44,3.61 0.1,4.96 l -59.55,34.38 m -949.99,-523.92 56.43,32.57 c 2.39,1.38 2.43,3.6 0.08,4.96 l -59.54,34.38 c -2.35,1.36 -6.2,1.33 -8.6,-0.05 l -56.41,-32.57 c -2.4,-1.39 -2.44,-3.61 -0.09,-4.97 l 59.54,-34.38 c 2.35,-1.35 6.2,-1.32 8.59,0.06 m 1114.9,619.13 c -2.34,1.36 -6.19,1.34 -8.58,-0.05 L 2681,1751.19 c -2.39,-1.38 -2.43,-3.61 -0.08,-4.96 l 59.55,-34.38 c 2.34,-1.35 6.19,-1.33 8.59,0.05 l 56.42,32.58 c 2.39,1.38 2.43,3.6 0.07,4.96 l -59.54,34.37 m 182.28,105.24 c -2.36,1.36 -6.19,1.33 -8.6,-0.05 l -138.86,-80.18 c -2.41,-1.38 -2.44,-3.61 -0.09,-4.97 l 59.54,-34.37 c 2.34,-1.35 6.19,-1.34 8.59,0.05 l 138.88,80.18 c 2.39,1.38 2.43,3.61 0.08,4.96 l -59.54,34.38 M 1217.52,1344.66 c 2.35,-1.35 6.2,-1.33 8.6,0.05 l 56.41,32.58 c 2.4,1.38 2.44,3.6 0.09,4.96 l -59.54,34.38 c -2.35,1.35 -6.2,1.33 -8.6,-0.05 L 1158.07,1384 c -2.4,-1.38 -2.44,-3.6 -0.09,-4.96 l 59.54,-34.38 m 82.46,47.61 c 2.35,-1.35 6.19,-1.33 8.59,0.05 l 56.42,32.57 c 2.4,1.39 2.43,3.61 0.08,4.97 l -59.53,34.37 c -2.35,1.36 -6.2,1.34 -8.59,-0.04 l -56.43,-32.58 c -2.39,-1.38 -2.43,-3.6 -0.08,-4.96 l 59.54,-34.38 m 100.69,-385.2 c -2.35,1.36 -6.2,1.34 -8.59,-0.05 l -86.8,-50.11 c -2.4,-1.379 -2.43,-3.601 -0.09,-4.961 l 59.55,-34.367 c 2.35,-1.363 6.19,-1.344 8.59,0.047 l 86.79,50.109 c 2.4,1.383 2.44,3.602 0.09,4.961 l -59.54,34.371 m 17.64,453.52 c 2.36,-1.35 6.2,-1.33 8.6,0.05 l 56.41,32.57 c 2.4,1.39 2.44,3.61 0.09,4.97 l -59.54,34.37 c -2.35,1.36 -6.2,1.34 -8.59,-0.05 l -56.42,-32.57 c -2.4,-1.38 -2.44,-3.61 -0.08,-4.96 l 59.53,-34.38 m 164.92,95.22 c 2.35,-1.36 6.2,-1.34 8.59,0.04 l 56.42,32.58 c 2.4,1.38 2.44,3.6 0.08,4.96 l -59.53,34.37 c -2.36,1.36 -6.2,1.34 -8.6,-0.04 l -56.41,-32.58 c -2.41,-1.38 -2.44,-3.61 -0.1,-4.96 l 59.55,-34.37 m -448.17,-258.75 c 2.35,-1.36 6.21,-1.34 8.6,0.05 l 56.42,32.57 c 2.39,1.39 2.44,3.61 0.09,4.96 l -59.55,34.38 c -2.35,1.35 -6.19,1.34 -8.59,-0.05 l -56.42,-32.57 c -2.39,-1.38 -2.43,-3.61 -0.09,-4.96 l 59.54,-34.38 m 365.71,211.14 c 2.35,-1.36 6.19,-1.33 8.6,0.05 l 56.41,32.58 c 2.4,1.37 2.43,3.59 0.09,4.95 l -59.55,34.38 c -2.34,1.35 -6.19,1.33 -8.59,-0.05 l -56.42,-32.57 c -2.39,-1.39 -2.43,-3.61 -0.09,-4.97 l 59.55,-34.37 m 164.91,95.21 c 2.35,-1.36 6.2,-1.33 8.59,0.05 l 56.42,32.58 c 2.4,1.38 2.44,3.6 0.09,4.95 l -59.54,34.38 c -2.35,1.36 -6.2,1.33 -8.6,-0.05 l -56.41,-32.57 c -2.4,-1.39 -2.44,-3.6 -0.09,-4.96 l 59.54,-34.38 m -307.89,-591.62 -59.54,34.37 c -2.35,1.36 -6.2,1.34 -8.59,-0.05 l -69.44,-40.09 c -2.4,-1.38 -2.44,-3.61 -0.09,-4.95 l 59.54,-34.39 c 2.35,-1.348 6.2,-1.328 8.6,0.05 l 69.44,40.1 c 2.39,1.38 2.43,3.6 0.08,4.96 m -46,71.66 -59.54,34.38 c -2.35,1.35 -6.2,1.33 -8.6,-0.06 l -108.49,-62.64 c -2.4,-1.38 -2.44,-3.6 -0.09,-4.96 l 59.54,-34.37 c 2.35,-1.36 6.2,-1.34 8.59,0.04 l 108.5,62.64 c 2.4,1.39 2.44,3.61 0.09,4.97 m -259.18,166 c 2.35,-1.35 6.2,-1.33 8.59,0.05 l 56.42,32.58 c 2.4,1.38 2.44,3.6 0.09,4.96 l -59.54,34.37 c -2.35,1.36 -6.2,1.33 -8.6,-0.04 l -56.414,-32.58 c -2.398,-1.38 -2.437,-3.6 -0.09,-4.96 l 59.544,-34.38 m -53.239,-30.73 -59.535,34.37 c -2.356,1.36 -6.195,1.34 -8.594,-0.05 l -69.437,-40.09 c -2.395,-1.38 -2.438,-3.6 -0.09,-4.96 l 59.543,-34.37 c 2.347,-1.36 6.199,-1.33 8.594,0.05 l 69.441,40.09 c 2.397,1.38 2.427,3.6 0.078,4.96 m 205.659,-98.69 -59.55,34.37 c -2.34,1.36 -6.19,1.34 -8.59,-0.05 l -86.79,-50.11 c -2.4,-1.38 -2.44,-3.6 -0.09,-4.96 l 59.55,-34.37 c 2.35,-1.36 6.19,-1.34 8.59,0.05 l 86.79,50.1 c 2.4,1.4 2.43,3.61 0.09,4.97 m -115.43,31.57 -59.56,34.38 c -2.34,1.35 -6.19,1.33 -8.58,-0.06 l -56.425,-32.57 c -2.398,-1.38 -2.437,-3.6 -0.082,-4.96 l 59.537,-34.38 c 2.35,-1.35 6.2,-1.33 8.6,0.05 l 56.41,32.57 c 2.4,1.39 2.44,3.61 0.1,4.97 m 459.06,-34.53 56.41,32.57 c 2.4,1.39 2.44,3.6 0.1,4.97 l -59.55,34.37 c -2.35,1.36 -6.2,1.34 -8.59,-0.05 l -56.42,-32.57 c -2.4,-1.38 -2.44,-3.61 -0.09,-4.96 l 59.54,-34.38 c 2.35,-1.35 6.2,-1.33 8.6,0.05 m 82.97,322.92 -56.41,-32.57 c -2.4,-1.38 -2.44,-3.61 -0.09,-4.96 l 59.55,-34.38 c 2.34,-1.36 6.19,-1.33 8.58,0.05 l 56.42,32.58 c 2.4,1.38 2.44,3.6 0.09,4.95 l -59.54,34.38 c -2.35,1.36 -6.2,1.34 -8.6,-0.05 m -82.45,-47.6 -56.41,-32.58 c -2.4,-1.38 -2.45,-3.6 -0.09,-4.96 l 59.54,-34.37 c 2.35,-1.36 6.19,-1.34 8.59,0.05 l 56.42,32.57 c 2.4,1.39 2.43,3.6 0.09,4.96 l -59.55,34.37 c -2.34,1.36 -6.2,1.34 -8.59,-0.04 m 329.83,190.42 -56.42,-32.57 c -2.4,-1.39 -2.44,-3.6 -0.09,-4.96 l 59.54,-34.38 c 2.35,-1.35 6.2,-1.33 8.6,0.05 l 56.42,32.58 c 2.39,1.38 2.43,3.6 0.08,4.96 l -59.54,34.37 c -2.35,1.36 -6.2,1.33 -8.59,-0.05 m -164.92,-95.21 -56.42,-32.58 c -2.39,-1.38 -2.43,-3.6 -0.08,-4.95 l 59.54,-34.38 c 2.35,-1.36 6.2,-1.33 8.59,0.05 l 56.42,32.57 c 2.4,1.39 2.44,3.6 0.09,4.97 l -59.54,34.37 c -2.36,1.36 -6.2,1.33 -8.6,-0.05 m 82.46,47.61 -56.42,-32.58 c -2.4,-1.38 -2.43,-3.6 -0.08,-4.96 l 59.54,-34.37 c 2.34,-1.36 6.19,-1.34 8.59,0.05 l 56.42,32.57 c 2.39,1.38 2.43,3.61 0.09,4.96 l -59.55,34.37 c -2.35,1.36 -6.19,1.34 -8.59,-0.04 m -329.82,-190.43 -56.42,-32.57 c -2.4,-1.39 -2.44,-3.61 -0.09,-4.96 l 59.54,-34.38 c 2.35,-1.36 6.2,-1.34 8.6,0.05 l 56.41,32.57 c 2.39,1.39 2.44,3.61 0.09,4.96 l -59.55,34.38 c -2.34,1.36 -6.19,1.33 -8.58,-0.05 m -82.47,-47.61 -56.41,-32.57 c -2.4,-1.38 -2.43,-3.6 -0.1,-4.96 l 59.56,-34.38 c 2.34,-1.35 6.19,-1.33 8.59,0.05 l 56.42,32.58 c 2.39,1.38 2.43,3.6 0.08,4.96 l -59.54,34.37 c -2.35,1.36 -6.2,1.34 -8.6,-0.05 m 283.31,-13.22 56.42,32.56 c 2.39,1.39 2.43,3.61 0.08,4.97 l -59.54,34.37 c -2.35,1.36 -6.19,1.34 -8.59,-0.05 l -56.42,-32.57 c -2.4,-1.38 -2.44,-3.61 -0.09,-4.96 l 59.55,-34.37 c 2.34,-1.36 6.19,-1.34 8.59,0.05 m -82.46,-47.62 56.42,32.58 c 2.4,1.38 2.44,3.61 0.09,4.96 l -59.55,34.38 c -2.34,1.36 -6.19,1.33 -8.59,-0.05 l -56.42,-32.57 c -2.39,-1.39 -2.43,-3.61 -0.08,-4.96 l 59.54,-34.38 c 2.34,-1.36 6.2,-1.33 8.59,0.04 m -82.46,-47.6 56.42,32.57 c 2.4,1.39 2.44,3.61 0.09,4.97 l -59.54,34.37 c -2.35,1.36 -6.2,1.34 -8.6,-0.05 l -56.41,-32.57 c -2.4,-1.38 -2.44,-3.61 -0.09,-4.96 l 59.54,-34.38 c 2.35,-1.35 6.2,-1.34 8.59,0.05 m -200.84,60.84 -56.42,-32.58 c -2.4,-1.38 -2.43,-3.61 -0.08,-4.95 l 59.53,-34.38 c 2.36,-1.36 6.2,-1.34 8.6,0.05 l 56.42,32.57 c 2.4,1.39 2.43,3.6 0.08,4.96 l -59.54,34.38 c -2.35,1.36 -6.19,1.33 -8.59,-0.05 m 109.8,-108.5 c 2.35,-1.35 6.19,-1.33 8.59,0.05 l 56.42,32.58 c 2.39,1.38 2.43,3.6 0.08,4.96 l -59.54,34.38 c -2.35,1.36 -6.2,1.33 -8.59,-0.05 l -56.42,-32.58 c -2.39,-1.38 -2.43,-3.6 -0.09,-4.96 l 59.55,-34.38 m 632.31,536.95 -56.42,-32.57 c -2.4,-1.38 -2.43,-3.6 -0.08,-4.96 l 59.54,-34.38 c 2.35,-1.35 6.2,-1.33 8.59,0.05 l 56.42,32.58 c 2.4,1.38 2.44,3.6 0.08,4.96 l -59.53,34.37 c -2.36,1.36 -6.2,1.34 -8.6,-0.05 m 708.69,237.29 c 2.35,-1.36 6.21,-1.34 8.6,0.05 l 56.42,32.57 c 2.4,1.39 2.43,3.6 0.08,4.96 l -59.54,34.38 c -2.34,1.36 -6.2,1.33 -8.59,-0.05 l -56.42,-32.58 c -2.4,-1.38 -2.44,-3.6 -0.09,-4.96 l 59.54,-34.37 m -791.14,-284.89 -56.42,-32.57 c -2.4,-1.39 -2.44,-3.61 -0.09,-4.96 l 59.54,-34.38 c 2.35,-1.36 6.2,-1.33 8.59,0.05 l 56.42,32.57 c 2.4,1.39 2.43,3.61 0.09,4.96 l -59.54,34.38 c -2.35,1.36 -6.2,1.33 -8.59,-0.05 m 620.59,358.3 -56.42,-32.57 c -2.39,-1.38 -2.44,-3.61 -0.09,-4.96 l 59.55,-34.38 c 2.35,-1.35 6.19,-1.34 8.6,0.05 l 56.41,32.57 c 2.4,1.39 2.44,3.61 0.08,4.97 l -59.53,34.37 c -2.35,1.36 -6.21,1.33 -8.6,-0.05 m 190.87,105.28 144.6,-83.48 c 2.35,-1.36 6.19,-1.34 8.59,0.05 l 56.42,32.57 c 2.4,1.39 2.44,3.61 0.08,4.96 l -144.6,83.49 c -2.35,1.35 -6.2,1.33 -8.59,-0.05 l -56.42,-32.57 c -2.39,-1.38 -2.44,-3.61 -0.08,-4.97 m -17.37,-10.02 c -2.34,1.36 -6.19,1.34 -8.59,-0.04 l -56.42,-32.58 c -2.39,-1.38 -2.43,-3.61 -0.08,-4.96 l 59.55,-34.38 c 2.34,-1.35 6.19,-1.33 8.58,0.05 l 56.43,32.57 c 2.39,1.39 2.43,3.61 0.08,4.96 l -59.55,34.38 m -79.41,-119.52 56.41,32.58 c 2.4,1.38 2.45,3.6 0.09,4.96 l -59.55,34.38 c -2.34,1.35 -6.19,1.33 -8.58,-0.05 l -56.42,-32.57 c -2.4,-1.39 -2.44,-3.61 -0.09,-4.97 l 59.55,-34.38 c 2.34,-1.35 6.2,-1.33 8.59,0.05 m 167.52,-1.49 56.41,32.56 c 2.4,1.39 2.44,3.62 0.09,4.97 l -59.55,34.37 c -2.34,1.36 -6.19,1.34 -8.59,-0.05 l -56.42,-32.57 c -2.39,-1.38 -2.43,-3.61 -0.09,-4.96 l 59.54,-34.37 c 2.36,-1.36 6.21,-1.34 8.61,0.05 m -1011.19,-583.81 56.42,32.57 c 2.4,1.39 2.43,3.61 0.09,4.96 l -59.55,34.38 c -2.34,1.36 -6.19,1.33 -8.59,-0.05 l -56.41,-32.58 c -2.4,-1.38 -2.44,-3.6 -0.09,-4.95 l 59.54,-34.38 c 2.35,-1.36 6.19,-1.34 8.59,0.05 m 838.02,753.93 c -2.34,1.36 -6.2,1.33 -8.59,-0.05 l -56.42,-32.57 c -2.39,-1.39 -2.43,-3.6 -0.08,-4.96 l 59.55,-34.38 c 2.34,-1.36 6.19,-1.33 8.58,0.05 l 56.42,32.58 c 2.4,1.38 2.44,3.6 0.09,4.96 l -59.55,34.37 m -532.49,-479.31 56.42,32.56 c 2.4,1.39 2.43,3.61 0.08,4.96 l -59.54,34.38 c -2.35,1.36 -6.19,1.34 -8.59,-0.05 l -56.42,-32.57 c -2.4,-1.39 -2.43,-3.61 -0.09,-4.96 l 59.55,-34.38 c 2.34,-1.36 6.19,-1.33 8.59,0.06 m 441.44,431.65 -56.41,-32.57 c -2.4,-1.38 -2.44,-3.6 -0.09,-4.96 l 59.55,-34.37 c 2.34,-1.36 6.19,-1.34 8.58,0.04 l 56.43,32.58 c 2.39,1.38 2.43,3.61 0.08,4.96 l -59.54,34.38 c -2.35,1.35 -6.19,1.33 -8.6,-0.06 m -182.27,-105.23 -56.41,-32.57 c -2.4,-1.38 -2.44,-3.6 -0.09,-4.96 l 59.54,-34.38 c 2.34,-1.36 6.19,-1.33 8.59,0.05 l 56.42,32.57 c 2.39,1.39 2.43,3.61 0.09,4.96 l -59.54,34.38 c -2.36,1.36 -6.2,1.33 -8.6,-0.05 m 99.82,57.63 -56.42,-32.58 c -2.4,-1.38 -2.43,-3.6 -0.09,-4.95 l 59.55,-34.38 c 2.35,-1.36 6.2,-1.33 8.59,0.05 l 56.42,32.57 c 2.4,1.39 2.44,3.6 0.08,4.96 l -59.54,34.38 c -2.34,1.36 -6.19,1.33 -8.59,-0.05 m -746.97,-706.28 56.41,32.57 c 2.4,1.38 2.44,3.61 0.09,4.96 l -59.54,34.38 c -2.35,1.36 -6.2,1.33 -8.59,-0.05 l -56.43,-32.57 c -2.39,-1.39 -2.43,-3.6 -0.08,-4.96 l 59.54,-34.38 c 2.36,-1.36 6.2,-1.33 8.6,0.05 m -398.74,44.8 -56.42,-32.57 c -2.4,-1.39 -2.44,-3.61 -0.09,-4.97 l 59.54,-34.37 c 2.35,-1.36 6.2,-1.33 8.6,0.05 l 56.41,32.57 c 2.4,1.39 2.44,3.61 0.09,4.97 l -59.54,34.37 c -2.35,1.36 -6.2,1.33 -8.59,-0.05 m 82.45,47.61 -56.41,-32.58 c -2.4,-1.38 -2.45,-3.6 -0.1,-4.95 l 59.55,-34.38 c 2.35,-1.36 6.2,-1.34 8.59,0.05 l 56.42,32.57 c 2.39,1.38 2.43,3.61 0.09,4.96 l -59.54,34.38 c -2.35,1.36 -6.21,1.33 -8.6,-0.05 m 82.46,47.6 -56.42,-32.57 c -2.4,-1.38 -2.44,-3.6 -0.09,-4.96 l 59.54,-34.37 c 2.35,-1.36 6.2,-1.34 8.6,0.05 l 56.41,32.57 c 2.4,1.38 2.45,3.6 0.09,4.96 l -59.54,34.37 c -2.35,1.36 -6.19,1.34 -8.59,-0.05 m 164.91,95.22 -56.42,-32.58 c -2.4,-1.38 -2.43,-3.6 -0.08,-4.96 l 59.54,-34.37 c 2.35,-1.36 6.19,-1.34 8.59,0.05 l 56.42,32.57 c 2.39,1.38 2.43,3.6 0.09,4.96 l -59.55,34.38 c -2.34,1.35 -6.19,1.33 -8.59,-0.05 m -412.29,-238.04 -56.41,-32.57 c -2.4,-1.38 -2.43,-3.61 -0.08,-4.96 l 59.53,-34.37 c 2.36,-1.36 6.2,-1.35 8.6,0.05 l 56.42,32.56 c 2.39,1.39 2.43,3.61 0.08,4.97 l -59.54,34.38 c -2.35,1.35 -6.19,1.33 -8.6,-0.06 m 329.83,190.43 -56.42,-32.57 c -2.39,-1.39 -2.43,-3.61 -0.08,-4.96 l 59.54,-34.38 c 2.35,-1.36 6.19,-1.34 8.59,0.05 l 56.42,32.57 c 2.4,1.39 2.44,3.61 0.09,4.96 l -59.55,34.38 c -2.35,1.36 -6.19,1.33 -8.59,-0.05 m -412.28,-238.03 -56.42,-32.58 c -2.4,-1.38 -2.43,-3.6 -0.08,-4.96 l 59.54,-34.38 c 2.35,-1.35 6.19,-1.32 8.59,0.06 l 56.42,32.57 c 2.4,1.38 2.43,3.61 0.08,4.96 l -59.54,34.38 c -2.35,1.35 -6.19,1.33 -8.59,-0.05 m 188.78,-259.33 c 2.35,-1.36 6.2,-1.34 8.59,0.05 l 56.42,32.57 c 2.39,1.39 2.43,3.6 0.09,4.96 l -59.55,34.38 c -2.34,1.35 -6.19,1.33 -8.58,-0.05 l -56.42,-32.58 c -2.4,-1.38 -2.44,-3.6 -0.09,-4.95 l 59.54,-34.38 m 91.05,47.65 56.42,32.58 c 2.4,1.38 2.44,3.61 0.09,4.96 l -59.54,34.38 c -2.36,1.35 -6.2,1.33 -8.6,-0.06 l -56.42,-32.57 c -2.39,-1.38 -2.43,-3.6 -0.08,-4.96 l 59.54,-34.38 c 2.35,-1.35 6.19,-1.33 8.59,0.05 m -243.81,60.59 c 2.35,-1.36 6.2,-1.33 8.59,0.05 l 56.42,32.57 c 2.4,1.39 2.43,3.61 0.08,4.96 l -59.53,34.38 c -2.36,1.36 -6.2,1.33 -8.6,-0.05 l -56.41,-32.57 c -2.4,-1.39 -2.44,-3.61 -0.09,-4.97 l 59.54,-34.37 m -118.48,103.48 -56.41,-32.57 c -2.4,-1.38 -2.44,-3.61 -0.09,-4.96 l 59.54,-34.38 c 2.35,-1.36 6.2,-1.34 8.59,0.05 l 56.42,32.57 c 2.4,1.39 2.44,3.61 0.09,4.96 l -59.54,34.38 c -2.36,1.36 -6.2,1.34 -8.6,-0.05 m 225.24,-140.06 c 2.35,-1.36 6.19,-1.34 8.59,0.05 l 56.42,32.57 c 2.39,1.38 2.43,3.61 0.09,4.97 l -59.55,34.37 c -2.35,1.35 -6.19,1.33 -8.58,-0.05 l -56.43,-32.57 c -2.39,-1.39 -2.43,-3.61 -0.08,-4.97 l 59.54,-34.37 m 434.42,520.91 -56.42,-32.57 c -2.4,-1.38 -2.44,-3.61 -0.09,-4.96 l 59.54,-34.38 c 2.35,-1.36 6.2,-1.33 8.6,0.05 l 56.42,32.58 c 2.39,1.38 2.43,3.61 0.09,4.95 l -59.55,34.38 c -2.35,1.36 -6.2,1.33 -8.59,-0.05 m 82.46,47.61 -56.42,-32.58 c -2.4,-1.38 -2.44,-3.6 -0.09,-4.95 l 59.54,-34.38 c 2.35,-1.36 6.19,-1.33 8.59,0.05 l 56.42,32.57 c 2.4,1.39 2.44,3.61 0.09,4.96 l -59.54,34.38 c -2.35,1.36 -6.2,1.33 -8.59,-0.05 m 398.74,-44.8 125.85,72.66 c 2.4,1.39 2.43,3.61 0.09,4.97 l -144.6,83.48 c -2.35,1.36 -6.2,1.33 -8.59,-0.05 l -65.1,-37.58 c -2.4,-1.39 -2.44,-3.61 -0.09,-4.97 l 76.56,-44.2 c 2.35,-1.35 2.3,-3.58 -0.09,-4.96 l -52.08,-30.07 c -2.4,-1.38 -2.44,-3.6 -0.09,-4.95 l 59.55,-34.38 c 2.34,-1.36 6.19,-1.33 8.59,0.05 m 84.19,146.83 56.42,32.57 c 2.39,1.38 2.43,3.61 0.09,4.96 l -59.55,34.38 c -2.35,1.36 -6.2,1.33 -8.59,-0.05 l -56.42,-32.57 c -2.39,-1.39 -2.44,-3.61 -0.09,-4.96 l 59.55,-34.38 c 2.34,-1.36 6.19,-1.33 8.59,0.05 m -414.02,-337.26 56.42,32.58 c 2.4,1.38 2.43,3.6 0.08,4.96 l -59.54,34.37 c -2.35,1.36 -6.19,1.34 -8.59,-0.05 l -56.42,-32.57 c -2.4,-1.38 -2.44,-3.6 -0.08,-4.96 l 59.54,-34.38 c 2.35,-1.35 6.2,-1.33 8.59,0.05 m 82.46,47.61 56.41,32.57 c 2.4,1.39 2.44,3.61 0.09,4.96 l -59.54,34.38 c -2.35,1.36 -6.2,1.33 -8.59,-0.05 l -56.42,-32.57 c -2.4,-1.39 -2.43,-3.61 -0.09,-4.96 l 59.55,-34.38 c 2.34,-1.36 6.19,-1.33 8.59,0.05 m 82.45,47.61 56.42,32.57 c 2.4,1.38 2.44,3.6 0.09,4.96 l -59.54,34.37 c -2.35,1.36 -6.2,1.34 -8.6,-0.04 l -56.41,-32.57 c -2.4,-1.39 -2.44,-3.61 -0.09,-4.97 l 59.54,-34.37 c 2.35,-1.36 6.2,-1.34 8.59,0.05 m 82.46,47.6 56.42,32.58 c 2.39,1.38 2.44,3.6 0.09,4.95 l -59.55,34.38 c -2.34,1.36 -6.2,1.33 -8.59,-0.05 l -56.42,-32.57 c -2.39,-1.38 -2.44,-3.6 -0.09,-4.96 l 59.55,-34.38 c 2.35,-1.36 6.19,-1.33 8.59,0.05 m -233.83,140.02 -56.42,-32.58 c -2.4,-1.38 -2.43,-3.6 -0.09,-4.96 l 59.55,-34.37 c 2.35,-1.36 6.2,-1.34 8.59,0.04 l 56.42,32.58 c 2.4,1.38 2.44,3.61 0.09,4.96 l -59.54,34.37 c -2.35,1.36 -6.2,1.34 -8.6,-0.04 m 82.46,47.6 -56.42,-32.57 c -2.39,-1.39 -2.43,-3.6 -0.09,-4.96 l 59.55,-34.38 c 2.34,-1.35 6.19,-1.33 8.59,0.05 l 56.42,32.58 c 2.39,1.38 2.43,3.6 0.08,4.95 l -59.54,34.38 c -2.35,1.36 -6.2,1.33 -8.59,-0.05 m 221.33,127.79 -56.42,-32.58 c -2.39,-1.38 -2.43,-3.6 -0.08,-4.95 l 59.54,-34.38 c 2.35,-1.36 6.2,-1.33 8.59,0.05 l 56.41,32.57 c 2.4,1.39 2.45,3.61 0.1,4.96 l -59.55,34.37 c -2.34,1.37 -6.2,1.34 -8.59,-0.04 m -99.82,-57.63 -95.47,-55.13 c -2.4,-1.38 -2.44,-3.6 -0.09,-4.95 l 59.54,-34.38 c 2.36,-1.36 6.2,-1.33 8.6,0.05 l 95.47,55.12 c 2.4,1.38 2.44,3.6 0.09,4.96 l -59.54,34.38 c -2.35,1.35 -6.2,1.34 -8.6,-0.05 m 182.27,105.23 -56.41,-32.57 c -2.4,-1.38 -2.44,-3.6 -0.09,-4.96 l 59.54,-34.38 c 2.35,-1.35 6.2,-1.33 8.59,0.05 l 56.42,32.58 c 2.4,1.38 2.44,3.6 0.1,4.96 l -59.55,34.38 c -2.35,1.35 -6.19,1.33 -8.6,-0.06 m 96.69,-120.96 56.42,32.56 c 2.4,1.39 2.44,3.61 0.1,4.97 l -59.55,34.38 c -2.35,1.35 -6.2,1.33 -8.6,-0.05 l -56.41,-32.58 c -2.41,-1.38 -2.44,-3.6 -0.08,-4.96 l 59.53,-34.38 c 2.35,-1.35 6.2,-1.33 8.59,0.06"/>
      <path id="path56" style="fill:#17282f;fill-opacity:1;fill-rule:nonzero;stroke:none" d="m 2086.03,1186.99 508.15,293.37 c 15.31,8.84 40.14,8.84 55.46,0.01 l 291.38,-168.23 c 15.31,-8.84 15.31,-23.18 0,-32.02 L 2432.87,986.738 c -15.31,-8.84 -40.15,-8.84 -55.46,0 l -291.38,168.232 c -15.31,8.84 -15.31,23.17 0,32.02"/>
      <path id="path58" style="fill:#26b6a6;fill-opacity:1;fill-rule:nonzero;stroke:none" d="M 2000.04,3411.26 C 1841.19,3268.61 1704,3276.09 1618.23,3342.14 1532.55,3177.03 1395.35,3011.22 1236.5,2970.44 l -90.7,-244.97 c 0,0 48.61,-56.01 48.61,-190.03 0,-60.41 -9.25,-113.51 -22.46,-166.26 -16.55,-66.12 -37.87,-134.55 -37.87,-248.75 0,-77.5 10.22,-152.79 49.41,-221.29 22.63,-39.63 55.3,-73.18 99.32,-99.51 -29.32,16.9 -115.61,66.75 -137.89,79.6 -46.67,26.86 -81.02,61.38 -104.53,102.5 -39.18,68.6 -49.398,143.8 -49.398,221.29 0,114.21 21.308,182.63 37.858,248.85 13.22,52.66 22.55,105.76 22.55,166.17 0,134.02 -48.61,190.03 -48.61,190.03 l 90.61,244.97 c 158.86,40.77 296.05,206.58 381.73,371.7 85.77,-66.05 222.96,-73.53 381.82,69.12 l 143.09,-82.6"/>
      <path id="path60" style="fill:#cdeee2;fill-opacity:1;fill-rule:nonzero;stroke:none" d="m 1752.64,3296.69 c -0.01,0 -0.02,0 -0.03,0 0.01,0 0.02,0 0.03,0 v 0 m 0.07,0 c 20.63,0.01 42.35,2.71 64.99,8.53 -3.64,-0.93 -7.27,-1.79 -10.87,-2.57 -18.74,-4.05 -36.81,-5.95 -54.12,-5.96 m -143.16,82.6 c -30.4,0 -58.47,5.85 -83.77,16.21 l -0.34,0.2 c 25.4,-10.45 53.61,-16.37 84.18,-16.37 71.24,0 155.3,32.14 246.53,113.81 -91.26,-81.69 -175.34,-113.85 -246.6,-113.85"/>
      <path id="path62" style="fill-opacity: 1; fill-rule: nonzero; stroke: none; fill: rgb(206, 221, 238);" d="m 1752.64,3296.69 c -0.01,0 -0.02,0 -0.03,0 -21.45,0.01 -41.74,2.92 -60.72,8.28 -27.45,7.76 -52.17,20.64 -73.64,37.19 0,-0.01 -0.01,-0.02 -0.01,-0.03 -0.01,0.01 -0.01,0.01 -0.01,0.01 v 0 0 l -92.45,53.36 c 25.3,-10.36 53.37,-16.21 83.77,-16.21 71.26,0 155.34,32.16 246.6,113.85 0.27,0.24 0.53,0.47 0.8,0.72 l 143.07,-82.59 c -65.1,-58.46 -126.54,-91.71 -182.32,-106.05 -22.64,-5.82 -44.36,-8.52 -64.99,-8.53 -0.02,0 -0.05,0 -0.07,0 m 247.4,114.56 -0.02,0.02 0.02,-0.01 v 0 0"/>
      <path id="path64" style="fill:#92dac6;fill-opacity:1;fill-rule:nonzero;stroke:none" d="m 1525.77,3395.5 c -17.39,7.13 -33.48,16.38 -48.11,27.32 14.53,-10.86 30.52,-20.02 47.77,-27.12 l -50.3,29.04 50.31,-29.04 c -0.01,0 -0.01,0 -0.01,0 l 0.34,-0.2 m -48.17,27.37 c -0.08,0.05 -0.15,0.11 -0.22,0.16 0.07,-0.05 0.14,-0.11 0.22,-0.16 m -0.49,0.36 c -0.03,0.02 -0.05,0.04 -0.07,0.05 0.02,-0.01 0.05,-0.03 0.07,-0.05 m -1.7,1.3 c -0.09,0.07 -0.19,0.14 -0.28,0.21 v 0 c 0.09,-0.07 0.18,-0.14 0.28,-0.21"/>
      <path id="path66" style="fill-opacity: 1; fill-rule: nonzero; stroke: none; fill: rgb(148, 184, 219);" d="m 1236.49,2970.45 -143.09,82.59 c 158.86,40.77 296.05,206.58 381.73,371.7 v 0 c 0.09,-0.07 0.19,-0.14 0.28,-0.21 0.54,-0.42 1.09,-0.83 1.63,-1.25 0.02,-0.01 0.04,-0.03 0.07,-0.05 0.09,-0.06 0.18,-0.13 0.27,-0.2 0.07,-0.05 0.14,-0.11 0.22,-0.16 0.02,-0.02 0.04,-0.03 0.06,-0.05 14.63,-10.94 30.72,-20.19 48.11,-27.32 l 92.46,-53.36 c -4.85,-9.35 -9.87,-18.7 -15.04,-28.03 -86.29,-155.44 -216.86,-305.21 -366.7,-343.66 v 0"/>
      <path id="path68" style="fill:#e7f6f0;fill-opacity:1;fill-rule:nonzero;stroke:none" d="m 1525.43,3395.7 c -17.25,7.1 -33.24,16.26 -47.77,27.12 -0.02,0.02 -0.04,0.03 -0.06,0.05 -0.08,0.05 -0.15,0.11 -0.22,0.16 -0.09,0.07 -0.18,0.14 -0.27,0.2 -0.02,0.02 -0.05,0.04 -0.07,0.05 -0.55,0.42 -1.09,0.83 -1.63,1.25 -0.1,0.07 -0.19,0.14 -0.28,0.21 v 0 l 50.3,-29.04"/>
      <path id="path70" style="fill:#e8f7f3;fill-opacity:1;fill-rule:nonzero;stroke:none" d="m 1477.66,3422.82 c -0.02,0.02 -0.04,0.03 -0.06,0.05 0.02,-0.02 0.04,-0.03 0.06,-0.05 m -0.28,0.21 c -0.09,0.07 -0.18,0.14 -0.27,0.2 0.09,-0.06 0.18,-0.13 0.27,-0.2 m -0.34,0.25 c -0.54,0.42 -1.09,0.83 -1.63,1.25 0.54,-0.42 1.08,-0.83 1.63,-1.25"/>
      <path id="path72" style="fill:#edf9f4;fill-opacity:1;fill-rule:nonzero;stroke:none" d="m 1525.78,3395.5 h -0.01 l -0.34,0.2 c 0,0 0,0 0.01,0 l 0.34,-0.2"/>
      <path id="path74" style="fill:#eef9f7;fill-opacity:1;fill-rule:nonzero;stroke:none" d="m 1618.23,3342.14 -92.46,53.36 h 0.01 l 92.45,-53.36"/>
      <path id="path76" style="fill-opacity: 1; fill-rule: nonzero; stroke: none; fill: rgb(124, 163, 210);" d="m 1145.8,2725.47 -143.01,82.6 v 0 l 90.61,244.97 143.09,-82.59 -16.19,-43.74 -74.5,-201.24 v 0"/>
      <path id="path78" style="fill-opacity: 1; fill-rule: nonzero; stroke: none; fill: rgb(88, 143, 198);" d="m 1281.11,1800.61 c -20.31,11.72 -63.5,36.65 -96.85,55.91 -17.26,9.97 -31.89,18.41 -39.34,22.71 -46.67,26.86 -81.02,61.38 -104.53,102.5 -39.18,68.6 -49.398,143.8 -49.398,221.29 0,114.21 21.308,182.63 37.858,248.85 13.22,52.66 22.55,105.76 22.55,166.17 v 0 0 0 0 c 0,134.02 -48.61,190.03 -48.61,190.03 l 143.01,-82.6 c 0,0 48.61,-56.01 48.61,-190.03 0,-37.6 -3.59,-72.36 -9.48,-105.98 -3.58,-20.39 -8.01,-40.34 -13,-60.24 -9.44,-37.71 -20.4,-76.14 -28.09,-123.35 -5.81,-35.65 -9.76,-76.31 -9.76,-125.44 v 0 0 0 0 c 0,-67.01 7.64,-132.36 35.04,-193.1 4.28,-9.51 9.05,-18.9 14.34,-28.18 22.35,-39.12 54.47,-72.28 97.65,-98.54"/>
      <path id="path80" style="fill:#26b6a6;fill-opacity:1;fill-rule:nonzero;stroke:none" d="m 1618.25,1731.34 c -237.26,-2.62 -373.18,59.95 -434.79,167.81 -39.14,68.54 -49.35,143.81 -49.35,221.28 0,114.2 21.24,182.6 37.82,248.79 13.2,52.68 22.52,105.81 22.52,166.18 0,134.02 -48.61,190.03 -48.61,190.03 l 90.65,245.02 c 158.84,40.77 296.03,206.61 381.76,371.71 85.74,-66.11 222.92,-73.54 381.77,69.11 l 90.65,-140.34 c 0,0 -48.61,-112.14 -48.61,-246.16 0,-60.37 9.31,-102.75 22.51,-140.18 16.58,-47.05 37.83,-90.91 37.83,-205.11 0,-77.48 -10.21,-164.54 -49.36,-278.27 -61.6,-179.01 -197.52,-398.52 -434.79,-669.87"/>
      <path id="path82" style="fill-opacity: 1; fill-rule: nonzero; stroke: none; fill: rgb(175, 208, 228);" d="m 1603.99,1731.26 c -16.49,0 -32.46,0.33 -47.96,0.97 -79.75,3.3 -146.41,15 -201.25,34.15 -82.09,28.65 -137.74,73.99 -171.32,132.77 -39.14,68.54 -49.35,143.81 -49.35,221.28 0,114.2 21.24,182.6 37.82,248.79 13.2,52.68 22.52,105.81 22.52,166.18 v 0 0 c 0,134.02 -48.61,190.03 -48.61,190.03 l 90.65,245.02 c 158.84,40.77 296.03,206.61 381.76,371.71 36.31,-28 81.87,-45.47 134.38,-45.47 71.47,0 155.82,32.35 247.39,114.58 l 90.65,-140.34 c 0,0 -48.61,-112.14 -48.61,-246.16 v 0 0 c 0,-60.37 9.31,-102.75 22.51,-140.18 16.58,-47.05 37.83,-90.91 37.83,-205.11 0,-77.48 -10.21,-164.54 -49.36,-278.27 -61.6,-179.01 -197.52,-398.52 -434.79,-669.87 -4.79,-0.05 -9.55,-0.08 -14.26,-0.08 m -13.83,61.73 v 0 0 c 207.88,240.79 343.96,452.08 404.6,628.28 31.81,92.42 46,172.06 46,258.21 v 0 0 0 0 c 0,90.68 -13.83,128.43 -28.46,168.38 -1.99,5.43 -3.95,10.81 -5.87,16.24 -17.99,51.06 -26.01,100.61 -26.01,160.67 0,102.64 25.76,192.94 41.62,238.81 v 0 0 0 0 l -36.56,56.6 v 0 l -20.82,-14.36 0.03,-0.06 v 0 l -0.03,0.06 c -69.89,-46.23 -139.8,-70.02 -208.72,-70.76 -0.01,0 -0.02,0 -0.04,0 -0.11,0 -0.22,0 -0.34,0 -0.03,0 -0.06,0 -0.09,0 -0.1,0 -0.2,0 -0.3,0 -0.05,-0.01 -0.1,-0.01 -0.15,-0.01 -0.09,0 -0.18,0 -0.26,0 -0.06,0 -0.12,0 -0.18,0 -0.08,0 -0.16,0 -0.24,0 -0.07,0 -0.14,0 -0.21,0 -0.08,0 -0.14,0 -0.21,0 -0.08,0 -0.16,0 -0.24,0 -0.06,0 -0.12,0 -0.19,0 -0.09,0 -0.19,0 -0.29,0 -0.04,0 -0.09,0 -0.14,0 -0.14,0 -0.28,-0.01 -0.43,-0.01 -38.84,0 -76.31,7.65 -110.93,22.43 -13.5,-22.84 -29.48,-48.15 -47.86,-74.47 -15.9,-22.65 -33.08,-45.31 -51.67,-67.96 -66.14,-79.75 -152.49,-157.26 -256.64,-194.03 h -0.01 c -0.19,-0.07 -0.37,-0.13 -0.55,-0.2 -0.04,-0.01 -0.08,-0.02 -0.11,-0.03 -0.16,-0.06 -0.32,-0.12 -0.48,-0.17 -0.03,-0.01 -0.09,-0.03 -0.12,-0.04 -0.19,-0.07 -0.38,-0.14 -0.58,-0.2 v 0 l -69.56,-188.02 v 0 0 0 0 c 18.57,-35.37 41.97,-99.31 41.97,-196.95 0,-58.05 -7.52,-113.92 -24.37,-181.16 -1.85,-7.43 -3.78,-14.89 -5.72,-22.44 -14.87,-57.81 -30.25,-117.58 -30.25,-211.37 v 0 0 0 0 0 0 0 0 c 0,-81.96 12.71,-140.78 41.23,-190.71 v 0 c 0.05,-0.1 0.11,-0.2 0.17,-0.29 0,-0.01 0,-0.02 0.01,-0.02 50.62,-88.24 169.04,-134.1 352.11,-136.41 0.04,0 0.06,0 0.1,0 0.26,-0.01 0.52,-0.01 0.79,-0.01"/>
      <path id="path84" style="fill-opacity: 1; fill-rule: nonzero; stroke: none; fill: rgb(94, 150, 200);" d="m 1590.16,1792.99 v 0 l -48.62,27.69 c 0.21,0 0.42,0 0.63,-0.01 v 0 c 207.88,240.8 343.97,452.09 404.6,628.28 31.81,92.43 46,172.07 46,258.22 0,90.68 -13.82,128.42 -28.46,168.37 -1.98,5.44 -3.95,10.81 -5.87,16.25 -17.98,51.05 -26,100.6 -26,160.67 0,102.63 25.75,192.94 41.61,238.81 l -9.36,14.49 v 0 l 9.36,-14.49 47.99,-27.69 c -15.86,-45.87 -41.62,-136.17 -41.62,-238.81 v 0 0 0 0 c 0,-60.06 8.02,-109.61 26.01,-160.67 1.92,-5.43 3.88,-10.81 5.87,-16.24 14.63,-39.95 28.46,-77.7 28.46,-168.38 0,-86.15 -14.19,-165.79 -46,-258.21 -60.64,-176.2 -196.72,-387.49 -404.6,-628.28 m 0,0 c -0.27,0 -0.53,0 -0.79,0.01 0.26,-0.01 0.52,-0.01 0.79,-0.01 m -0.89,0.01 c -183.07,2.31 -301.49,48.17 -352.11,136.41 13.99,-24.39 33.34,-45.42 57.64,-63.31 63.54,-46.85 162,-71.43 294.47,-73.1 m -352.12,136.43 c -0.06,0.09 -0.12,0.19 -0.17,0.29 0.05,-0.1 0.11,-0.2 0.17,-0.29 M 1593.84,3183 c 18.38,26.32 34.36,51.63 47.86,74.47 34.62,-14.78 72.09,-22.43 110.93,-22.43 0.15,0 0.29,0.01 0.43,0.01 -0.14,0 -0.28,-0.01 -0.43,-0.01 -38.84,0 -76.31,7.65 -110.93,22.43 -13.5,-22.84 -29.48,-48.15 -47.86,-74.47 v 0 m 159.36,52.05 c 0.1,0 0.2,0 0.29,0 -0.09,0 -0.19,0 -0.29,0 m 0.48,0 c 0.08,0 0.16,0 0.24,0 -0.08,0 -0.16,0 -0.24,0 m 0.45,0 c 0.07,0 0.14,0 0.21,0 -0.07,0 -0.15,0 -0.21,0 m 0.45,0 c 0.06,0 0.12,0 0.18,0 -0.06,0 -0.12,0 -0.18,0 m 0.44,0 c 0.05,0 0.1,0 0.15,0.01 -0.05,-0.01 -0.1,-0.01 -0.15,-0.01 m 0.45,0.01 c 0.03,0 0.06,0 0.09,0 -0.03,0 -0.06,0 -0.09,0 m 0.43,0 c 0.02,0 0.03,0 0.04,0 -0.01,0 -0.03,0 -0.04,0"/>
      <path id="path86" style="fill:#eef9f7;fill-opacity:1;fill-rule:nonzero;stroke:none" d="m 1589.37,1793 c -0.04,0 -0.06,0 -0.1,0 0.02,0 0.07,0 0.1,0"/>
      <path id="path88" style="fill:#daf2ea;fill-opacity:1;fill-rule:nonzero;stroke:none" d="m 1590.16,1792.99 v 0 c -0.27,0 -0.53,0 -0.79,0.01 -0.03,0 -0.08,0 -0.1,0 -132.47,1.67 -230.93,26.25 -294.47,73.1 0.66,-0.49 1.34,-0.98 2.01,-1.47 61.3,-27.94 142.99,-42.69 244.73,-43.95 l 48.62,-27.69"/>
      <path id="path90" style="fill:#8fd8c4;fill-opacity:1;fill-rule:nonzero;stroke:none" d="m 1964.69,3305.76 -0.03,0.06 20.82,14.36 c -6.93,-5.03 -13.86,-9.84 -20.79,-14.42"/>
      <path id="path92" style="fill-opacity: 1; fill-rule: nonzero; stroke: none; fill: rgb(76, 143, 185);" d="m 2022.04,3263.58 -47.99,27.69 -9.36,14.49 c 6.93,4.58 13.86,9.39 20.79,14.42 v 0 l 36.56,-56.6 v 0"/>
      <path id="path94" style="fill:#33535f;fill-opacity:1;fill-rule:nonzero;stroke:none" d="m 1958.44,2891.79 c -17.98,51.05 -26,100.6 -26,160.67 0,102.63 25.75,192.94 41.61,238.81 l -9.39,14.55 c -71.01,-46.97 -142.04,-70.78 -212.03,-70.78 -38.84,0 -76.31,7.65 -110.93,22.43 -65.1,-110.12 -187.99,-277.99 -358.02,-337.1 l -69.56,-188.02 c 18.57,-35.37 41.97,-99.31 41.97,-196.95 0,-58.05 -7.52,-113.92 -24.37,-181.16 -1.85,-7.43 -3.78,-14.89 -5.72,-22.44 -14.87,-57.81 -30.25,-117.58 -30.25,-211.37 0,-81.96 12.71,-140.78 41.23,-190.71 14.39,-25.19 34.49,-46.81 59.83,-65.09 61.42,-27.99 143.33,-42.75 245.36,-43.96 207.88,240.8 343.97,452.09 404.6,628.28 31.81,92.43 46,172.07 46,258.22 0,90.68 -13.82,128.42 -28.46,168.37 -1.98,5.44 -3.95,10.81 -5.87,16.25"/>
      <path id="path96" style="fill:#273e47;fill-opacity:1;fill-rule:nonzero;stroke:none" d="m 1283.68,2920.37 -69.56,-188.02 c 18.57,-35.37 41.97,-99.31 41.97,-196.95 0,-58.05 -7.52,-113.92 -24.37,-181.16 -1.85,-7.43 -3.78,-14.89 -5.72,-22.44 -14.87,-57.81 -30.25,-117.58 -30.25,-211.37 0,-81.96 12.71,-140.78 41.23,-190.71 14.39,-25.19 34.49,-46.81 59.83,-65.09 61.42,-27.99 143.33,-42.75 245.36,-43.96 v 692.81 l 99.53,30.1 v 713.89 c -27.82,-47.47 -60.56,-94.96 -99.53,-142.43 -66.53,-80.22 -153.51,-158.17 -258.49,-194.67"/>
      <path id="path98" style="fill:#17282f;fill-opacity:1;fill-rule:nonzero;stroke:none" d="m 1481.92,2783.1 c 0,63.56 43.17,142.18 94.26,171.68 17.42,10.05 33.07,12.55 42.97,6.85 11.65,-6.73 18.61,-25.73 18.61,-50.83 v -116.45 l -85.98,-49.64 -69.86,-40.33 v 78.72 m 300.48,-13.59 c -0.95,1.87 -2.24,3.69 -3.77,5.45 l -0.47,0.58 c -2.65,2.92 -6.1,5.65 -10.34,8.1 l -33.35,19.26 c -5.66,3.26 -12.19,5.71 -19.16,7.34 -3.95,0.93 -8.06,1.52 -12.21,1.92 v 98.64 c 0,49.45 -18.69,88.6 -51.28,107.41 -31.1,17.96 -69.56,15.53 -108.31,-6.84 -71.17,-41.1 -126.93,-141.36 -126.93,-228.27 v -116.44 l -66.33,-38.3 c -2.09,-1.22 -3.93,-2.51 -5.64,-3.85 l -1.79,-1.41 -0.39,-0.38 c -6.09,-5.49 -9.16,-11.77 -9.14,-18.06 V 2205.4 c -0.01,-1.72 0.28,-3.44 0.73,-5.15 1.53,-5.82 5.68,-11.43 12.53,-16.19 1.16,-0.81 2.38,-1.61 3.7,-2.37 l 16.22,-9.37 17.16,-9.91 c 6.23,-3.61 13.6,-6.11 21.42,-7.71 20.42,-4.22 44.09,-1.71 60.46,7.74 l 302.31,174.54 c 11.31,6.53 16.97,15.09 16.97,23.65 v 399.35 c 0,3.21 -0.79,6.43 -2.39,9.53"/>
      <path id="path100" style="fill-opacity: 1; fill-rule: nonzero; stroke: none; fill: rgb(38, 115, 182);" d="m 1820.01,2742.38 c 0,8.56 -5.65,17.12 -16.97,23.65 l -33.35,19.25 c -22.62,13.07 -59.29,13.07 -81.92,0 l -302.3,-174.54 c -11.32,-6.54 -16.97,-15.11 -16.96,-23.68 v -399.27 c -0.03,-8.58 5.62,-17.16 16.96,-23.71 l 33.34,-19.25 c 22.62,-13.06 59.3,-13.06 81.92,0 l 302.31,174.54 c 11.31,6.53 16.97,15.09 16.97,23.64 v 399.37"/>
      <path id="path102" style="fill:#6c7a7f;fill-opacity:1;fill-rule:nonzero;stroke:none" d="m 1368.51,2586.79 c -0.1,6.62 3.17,13.25 9.82,18.95 -6.56,-5.63 -9.83,-12.16 -9.82,-18.68 v -0.27 m 9.83,18.96 c 0.02,0.02 0.05,0.04 0.07,0.05 -0.02,-0.01 -0.05,-0.03 -0.07,-0.05 m 0.11,0.09 c 0.01,0.01 0.02,0.02 0.03,0.02 -0.01,0 -0.02,-0.01 -0.03,-0.02"/>
      <path id="path104" style="fill-opacity: 1; fill-rule: nonzero; stroke: none; fill: rgb(92, 146, 200);" d="m 1459.82,2534.4 v 0.01 c -6.28,0 -12.56,0.58 -18.56,1.73 -8.2,1.6 -15.91,4.28 -22.45,8.05 l -28.02,16.18 -5.32,3.08 c -0.34,0.2 -0.68,0.4 -1.01,0.6 -6.59,3.99 -11.13,8.69 -13.64,13.66 -1.53,3.06 -2.29,6.22 -2.29,9.39 v -1.02 c -0.01,0.24 -0.02,0.48 -0.02,0.71 v 0.27 c -0.01,6.52 3.26,13.05 9.82,18.68 0.01,0 0.01,0.01 0.01,0.01 0.02,0.02 0.05,0.04 0.07,0.05 0.01,0.02 0.02,0.03 0.04,0.04 0.01,0.01 0.02,0.02 0.03,0.02 2.02,1.72 4.35,3.36 6.99,4.88 l 302.3,174.54 c 11.32,6.53 26.14,9.8 40.96,9.8 14.83,0 29.65,-3.27 40.96,-9.8 l 33.35,-19.25 c 22.63,-13.06 22.63,-34.24 0,-47.3 l -302.31,-174.54 c -11.3,-6.52 -26.1,-9.79 -40.91,-9.79"/>
      <path id="path106" style="fill:#21363e;fill-opacity:1;fill-rule:nonzero;stroke:none" d="m 1437.8,2137.52 c -6.9,1.62 -13.36,4.04 -18.94,7.28 l -15.45,8.92 15.4,-8.89 c 5.61,-3.24 12.08,-5.68 18.99,-7.31"/>
      <path id="path108" style="fill:#142228;fill-opacity:1;fill-rule:nonzero;stroke:none" d="m 1382.38,2166.01 c -7.23,4.86 -11.65,10.66 -13.21,16.66 1.58,-5.99 5.98,-11.78 13.21,-16.66 m -13.22,16.69 v 0.01 -0.01"/>
      <path id="path110" style="fill-opacity: 1; fill-rule: nonzero; stroke: none; fill: rgb(29, 104, 179);" d="m 1459.82,2135.05 c -7.5,0 -14.99,0.82 -22.02,2.47 -6.91,1.63 -13.38,4.07 -18.99,7.31 l -15.4,8.89 -17.94,10.37 c -1.09,0.62 -2.11,1.26 -3.09,1.92 -7.23,4.88 -11.63,10.67 -13.21,16.66 0,0.01 0,0.02 -0.01,0.03 v 0.01 c -0.44,1.7 -0.65,3.41 -0.63,5.13 v 398.24 c 0.15,-2.82 0.91,-5.64 2.29,-8.37 2.49,-4.98 7.02,-9.67 13.64,-13.66 0.33,-0.21 0.67,-0.4 1.01,-0.6 l 5.32,-3.08 28.07,-16.21 c 6.5,-3.77 14.19,-6.44 22.4,-8.02 5.99,-1.16 12.25,-1.74 18.51,-1.74 0.01,0 0.03,0 0.05,0 v -399.35"/>
      <path id="path112" style="fill:#50c4b2;fill-opacity:1;fill-rule:nonzero;stroke:none" d="m 1459.77,2534.4 c -6.26,0 -12.52,0.58 -18.51,1.74 6,-1.15 12.28,-1.73 18.56,-1.73 v -0.01 c -0.02,0 -0.04,0 -0.05,0 m -68.98,25.97 -5.32,3.08 c -0.34,0.2 -0.68,0.39 -1.01,0.6 0.33,-0.2 0.67,-0.4 1.01,-0.6 l 5.32,-3.08 m -19.97,17.34 c -1.38,2.73 -2.14,5.55 -2.29,8.37 v 1.02 c 0,-3.17 0.76,-6.33 2.29,-9.39"/>
      <path id="path114" style="fill:#33535f;fill-opacity:1;fill-rule:nonzero;stroke:none" d="m 1679.81,2336.88 -72.18,-41.68 11.18,130.58 c -8.63,4.56 -14.14,15.79 -14.14,31.93 0,28.75 17.49,62.14 39.05,74.6 21.56,12.44 39.05,-0.77 39.05,-29.53 0,-16.12 -5.51,-33.71 -14.15,-48.24 l 11.19,-117.66"/>
      <path id="path116" style="fill:#273e47;fill-opacity:1;fill-rule:nonzero;stroke:none" d="m 1679.81,2336.88 -65.38,37.74 -6.8,-79.42 z"/>
      <path id="path118" style="fill:#273e47;fill-opacity:1;fill-rule:nonzero;stroke:none" d="m 1643.72,2532.31 c -14.1,-8.15 -26.43,-25.28 -33.29,-44.19 l 58.2,-33.6 -0.01,0.02 c 8.64,14.53 14.15,32.12 14.15,48.24 0,28.76 -17.49,41.97 -39.05,29.53"/>
      <path id="path120" style="fill:#dadbd8;fill-opacity:1;fill-rule:nonzero;stroke:none" d="m 1738.32,2733.47 0.01,0.05 h -0.01 v 159.66 c 0,49.46 -18.69,88.61 -51.27,107.42 -31.11,17.96 -69.57,15.52 -108.32,-6.84 -71.17,-41.1 -126.92,-141.36 -126.92,-228.27 v -160.54 h -0.01 c 0,-4.82 3.22,-9.64 9.59,-13.32 12.75,-7.37 33.42,-7.37 46.17,0 6.37,3.68 9.59,8.5 9.59,13.32 h -0.01 v 160.54 c 0,63.56 43.17,142.18 94.26,171.68 17.42,10.06 33.08,12.55 42.98,6.84 11.65,-6.72 18.6,-25.72 18.6,-50.83 v -159.66 0 -0.02 -0.09 h 0.01 c 0.05,-4.79 3.26,-9.56 9.58,-13.21 12.74,-7.37 33.42,-7.37 46.17,0 6.32,3.64 9.52,8.42 9.57,13.21 h 0.01 v 0.06"/>
      <path id="path122" style="fill:#26b6a6;fill-opacity:1;fill-rule:nonzero;stroke:none" d="m 2126.9,2031.62 44,25.4 17.44,21.12 -44,-25.4 -17.44,-21.12"/>
      <path id="path124" style="fill-opacity: 1; fill-rule: nonzero; stroke: none; fill: rgb(25, 101, 177);" d="m 2126.9,2031.62 13.08,15.84 4.36,5.28 0.01,0.01 9.4,-5.63 -26.85,-15.5"/>
      <path id="path126" style="fill:#26b6a6;fill-opacity:1;fill-rule:nonzero;stroke:none" d="m 2246.64,1962.49 44.01,25.4 36.77,32.55 -44,-25.41 -36.78,-32.54"/>
      <path id="path128" style="fill-opacity: 1; fill-rule: nonzero; stroke: none; fill: rgb(25, 101, 177);" d="m 2246.64,1962.49 0.02,0.01 v 0 l -0.02,-0.01 m 0.1,0.05 26.44,23.44 10.24,9.05 0.02,0.02 9.26,-5.35 -2.05,-1.81 -14.15,-8.17 -29.76,-17.18"/>
      <path id="path130" style="fill:#26b6a6;fill-opacity:1;fill-rule:nonzero;stroke:none" d="m 2723.06,1873.37 c -14.8,100.82 -68.96,200.54 -133.52,237.8 -30.98,17.91 -59.65,18.56 -82.61,5.13 -6.72,-3.9 -31.63,-18.27 -41.46,-23.91 l -2.3,-1.36 c -1.81,-1.02 -3.61,-2.17 -5.35,-3.4 -3.32,-2.31 -6.5,-4.91 -9.53,-7.87 l -1.37,-1.3 c -1.3,-1.3 -2.6,-2.75 -3.83,-4.19 -1.51,-1.73 -3.04,-3.54 -4.4,-5.42 -2.89,-3.83 -5.64,-7.94 -8.09,-12.42 -1.23,-2.16 -2.46,-4.48 -3.61,-6.86 l -361.86,208.91 -43.98,-25.34 v -28.02 l 3.76,-2.17 3.46,-2.02 v -5.92 l -7.22,-4.19 v -16.32 l 53.15,-112.51 52.57,-30.4 17.48,21.16 46.36,-27.73 26.64,-45.64 29.33,-16.89 36.75,32.56 45.13,-26.07 15.17,-62.53 75.6,-43.62 c 3.83,-16.03 8.66,-31.7 14.3,-47.01 0.51,-1.59 1.08,-3.18 1.74,-4.91 25.12,-66.08 65.13,-122.62 110.19,-148.68 5.77,-3.33 11.41,-6.07 16.97,-8.17 3.18,-1.3 6.35,-2.31 9.46,-3.17 2.82,-0.8 5.63,-1.45 8.45,-1.88 9.31,-1.66 18.35,-1.59 26.79,0.07 1.22,0.29 2.45,0.58 3.68,0.87 1.73,0.36 3.47,0.87 5.13,1.52 1.3,0.5 2.6,1.01 3.9,1.51 1.37,0.51 2.74,1.16 4.04,1.88 1.3,0.58 2.53,1.22 3.76,1.95 l 1.87,1.08 0.87,0.51 c 10.04,5.77 34.81,20.07 41.53,23.9 33.43,19.35 55.1,68.38 55.1,137.71 0,17.62 -1.38,35.53 -4.05,53.36 m -102.29,1.34 c 9.65,-12.28 16.68,-30.3 18.18,-47.89 -9.64,12.28 -16.68,30.3 -18.18,47.89"/>
      <path id="path132" style="fill-opacity: 1; fill-rule: nonzero; stroke: none; fill: rgb(38, 122, 182);" d="m 2679.08,1848.03 c -14.81,100.74 -68.96,200.46 -133.52,237.72 -29.89,17.26 -57.56,18.56 -80.09,6.64 l -2.3,-1.36 c -1.81,-1.02 -3.61,-2.17 -5.35,-3.4 -3.32,-2.31 -6.5,-4.91 -9.53,-7.87 l -1.37,-1.3 c -1.3,-1.3 -2.6,-2.75 -3.83,-4.19 -1.51,-1.73 -3.04,-3.54 -4.4,-5.42 -2.89,-3.83 -5.64,-7.94 -8.09,-12.42 -1.23,-2.16 -2.46,-4.48 -3.61,-6.86 -6,-12.28 -10.76,-26.57 -13.94,-42.75 l -391.9,226.32 v -28.02 l 3.76,-2.17 3.46,-2.02 v -5.92 l -7.22,-4.19 v -16.32 l 53.15,-112.51 52.57,-30.4 17.48,21.16 46.36,-27.73 26.64,-45.64 29.33,-16.89 36.75,32.56 45.13,-26.07 15.17,-62.53 75.6,-43.62 c 3.83,-16.03 8.66,-31.7 14.3,-47.01 0.51,-1.59 1.08,-3.18 1.74,-4.91 25.12,-66.08 65.13,-122.62 110.19,-148.68 5.77,-3.33 11.41,-6.07 16.97,-8.17 3.18,-1.3 6.35,-2.31 9.46,-3.17 2.82,-0.8 5.63,-1.45 8.45,-1.88 9.31,-1.66 18.35,-1.59 26.79,0.07 1.22,0.29 2.45,0.58 3.68,0.87 1.73,0.36 3.47,0.87 5.13,1.52 1.3,0.5 2.6,1.01 3.9,1.51 1.37,0.51 2.74,1.16 4.04,1.88 1.3,0.58 2.53,1.22 3.76,1.95 l 1.87,1.08 0.87,0.51 c 32.07,20.22 52.64,68.53 52.64,136.19 0,17.62 -1.44,35.53 -4.04,53.44 m -71.22,-58.36 c -17.36,10.02 -31.43,39.81 -31.43,66.54 0,26.73 14.07,40.27 31.43,30.25 17.36,-10.03 31.43,-39.82 31.43,-66.55 0,-26.73 -14.07,-40.27 -31.43,-30.24"/>
      <path id="path134" style="fill-opacity: 1; fill-rule: nonzero; stroke: none; fill: rgb(8, 92, 145);" d="m 2618.9,1786.37 c -3.43,0 -7.15,1.06 -11.02,3.31 -4.44,2.56 -8.67,6.4 -12.5,11.15 -11.15,13.88 -18.95,35.48 -18.95,55.38 0,15.95 5.02,27.21 12.75,31.56 2.32,1.3 4.89,1.98 7.64,1.98 3.21,0 6.66,-0.92 10.26,-2.86 0.26,-0.14 0.52,-0.28 0.78,-0.43 3.1,-1.8 6.1,-4.22 8.93,-7.14 1.37,-1.43 2.69,-2.99 3.95,-4.65 1.51,-17.54 8.58,-35.6 18.19,-47.87 0.11,-0.89 0.19,-1.78 0.25,-2.66 0.07,-1.41 0.11,-2.82 0.11,-4.21 0,-20.74 -8.49,-33.56 -20.39,-33.56"/>
      <path id="path136" style="fill:#08917e;fill-opacity:1;fill-rule:nonzero;stroke:none" d="m 2595.38,1800.83 c -11.17,13.87 -18.99,35.46 -18.99,55.36 0,15.96 5.03,27.23 12.79,31.58 -7.73,-4.35 -12.75,-15.61 -12.75,-31.56 0,-19.9 7.8,-41.5 18.95,-55.38 m 43.91,19.1 c 0,1.39 -0.04,2.8 -0.11,4.21 0.09,-1.42 0.11,-2.83 0.11,-4.2 0,-0.01 0,-0.01 0,-0.01 m -22.5,59.39 c -2.83,2.92 -5.83,5.34 -8.93,7.14 -0.26,0.15 -0.52,0.29 -0.78,0.43 0.27,-0.14 0.53,-0.29 0.8,-0.44 3.1,-1.8 6.11,-4.21 8.91,-7.13"/>
      <path id="path138" style="fill:#6c7a7f;fill-opacity:1;fill-rule:nonzero;stroke:none" d="m 2589.21,2111.36 c -16.79,9.64 -32.89,14.22 -47.78,14.23 14.89,-0.01 30.99,-4.59 47.78,-14.23"/>
      <path id="path140" style="fill-opacity: 1; fill-rule: nonzero; stroke: none; fill: rgb(92, 160, 200);" d="m 2683.03,1802.35 c -0.36,15.11 -1.73,30.39 -3.95,45.68 -14.81,100.74 -68.96,200.46 -133.52,237.72 -16.99,9.81 -33.27,14.47 -48.29,14.47 -11.4,0 -22.07,-2.68 -31.8,-7.83 9.83,5.64 34.74,20.01 41.46,23.91 v 0 c 0.16,0.09 0.33,0.19 0.49,0.28 10.28,5.91 21.69,9 33.94,9.01 0.01,0 0.02,0 0.03,0 0.01,0 0.03,0 0.04,0 14.89,-0.01 30.99,-4.59 47.78,-14.23 0.11,-0.06 0.22,-0.13 0.33,-0.19 64.56,-37.26 118.72,-136.98 133.52,-237.8 2.67,-17.83 4.05,-35.74 4.05,-53.36 v 0 c 0,2.56 -0.1,5.13 -0.15,7.71 -15.09,-8.71 -30.35,-17.52 -43.93,-25.37"/>
      <path id="path142" style="fill:#26b6a6;fill-opacity:1;fill-rule:nonzero;stroke:none" d="m 2683.12,1794.59 c 0,-67.66 -20.57,-115.97 -52.64,-136.19 10.04,5.77 34.81,20.07 41.53,23.9 33.43,19.35 55.1,68.38 55.1,137.71 0,2.56 -0.1,5.13 -0.15,7.71 -15.11,-8.73 -30.39,-17.55 -43.99,-25.4 0.06,-2.58 0.15,-5.16 0.15,-7.73"/>
      <path id="path144" style="fill-opacity: 1; fill-rule: nonzero; stroke: none; fill: rgb(29, 129, 179);" d="m 2630.48,1658.4 c 32.07,20.22 52.64,68.53 52.64,136.19 v 0 0 0 c 0,2.57 -0.09,5.15 -0.15,7.73 13.6,7.85 28.88,16.67 43.99,25.4 0.05,-2.58 0.15,-5.15 0.15,-7.71 0,-15.78 -1.13,-30.52 -3.26,-44.09 -2.77,-17.67 -7.26,-33.38 -13.19,-46.87 -2.42,-5.51 -5.1,-10.66 -7.99,-15.42 -8.45,-13.89 -18.82,-24.47 -30.66,-31.33 -3.79,-2.16 -13.3,-7.64 -22.69,-13.04 -7.26,-4.19 -14.45,-8.34 -18.84,-10.86"/>
      <path id="path146" style="fill-opacity: 1; fill-rule: nonzero; stroke: none; fill: rgb(25, 101, 177);" d="m 2414.64,1972.02 -386.27,223.06 v -0.07 l -7.22,-4.19 7.22,4.19 v 5.92 l 386.27,-222.99 v -5.92"/>
      <path id="path148" style="fill-opacity: 1; fill-rule: nonzero; stroke: none; fill: rgb(25, 101, 177);" d="m 2414.64,1963.64 -393.49,227.18 7.22,4.19 v 0.07 l 386.27,-223.06 v -8.38"/>
      <path id="path150" style="fill-opacity: 1; fill-rule: nonzero; stroke: none; fill: rgb(25, 101, 177);" d="m 2585.89,1681.99 c -0.04,0 -0.08,0 -0.12,0 -13.28,0 -27.46,4.11 -42.05,12.53 -32.59,18.86 -61.5,55.68 -82.47,100.02 -20.94,44.35 -33.89,96.29 -33.9,145.63 v 0 0 0 c 0.01,38.29 7.8,69.49 21.44,91.41 13.55,21.87 33.39,34.5 56.43,34.5 0.04,0 0.08,0 0.12,0 13.27,0 27.46,-4.11 42.04,-12.53 32.6,-18.86 61.5,-55.68 82.47,-100.02 20.95,-44.35 33.89,-96.29 33.9,-145.62 -0.01,-38.3 -7.79,-69.5 -21.43,-91.42 -13.56,-21.88 -33.39,-34.5 -56.43,-34.5 m -151.22,258.18 c -0.01,-48.06 12.68,-99.1 33.2,-142.51 20.48,-43.42 48.85,-79.15 79.51,-96.81 13.72,-7.91 26.64,-11.55 38.39,-11.55 20.33,0.04 37.61,10.74 50.34,31.05 12.67,20.31 20.34,50.24 20.33,87.56 0.01,48.05 -12.69,99.09 -33.2,142.5 -20.48,43.42 -48.85,79.14 -79.52,96.8 -13.71,7.92 -26.63,11.56 -38.38,11.56 -20.33,-0.05 -37.61,-10.74 -50.34,-31.06 -12.67,-20.3 -20.34,-50.23 -20.33,-87.54"/>
      <path id="path152" style="fill-opacity: 1; fill-rule: nonzero; stroke: none; fill: rgb(92, 160, 200);" d="m 2413.05,2006.82 -391.9,226.32 43.98,25.34 361.86,-208.91 c -6,-12.28 -10.76,-26.57 -13.94,-42.75"/>
      <path id="path154" style="fill:#17282f;fill-opacity:1;fill-rule:nonzero;stroke:none" d="m 3920.79,943.27 c 1.51,-13.68 3.39,-52.079 72.99,-61.649 69.6,-9.57 113.45,13.461 132.01,46.949 18.55,33.489 14.29,60.782 17.26,91.79 2.98,31.01 28.61,47.52 35.97,63.49 10.84,23.52 -5.01,60.13 -5.01,60.13 L 3920.79,943.27"/>
      <path id="path156" style="fill:#17282f;fill-opacity:1;fill-rule:nonzero;stroke:none" d="m 3412.91,1052.32 c -2.52,-2 -3.26,-23.93 4.53,-33.67 5.35,-6.7 53.71,-39.111 111.53,-29.83 57.82,9.289 85.62,25.45 118.08,46.27 33.21,21.3 56.55,25.07 91.11,26.25 33.48,1.15 57.97,8.59 60.51,17.38 4.45,15.43 4.45,25.21 -2.88,24.71 l -382.88,-51.11"/>
      <path id="path158" style="fill:#f6879f;fill-opacity:1;fill-rule:nonzero;stroke:none" d="m 4157.8,1197.84 c -8.72,-63.44 -131.78,-58.33 -121.76,-7.65 l -21.95,154.09 139.3,-4.32 4.41,-142.12"/>
      <path id="path160" style="fill:#273e47;fill-opacity:1;fill-rule:nonzero;stroke:none" d="m 3925.83,974.91 c 6.15,11.43 24.1,27.9 32.01,38.21 41.28,53.84 67.27,116.49 72.37,184.62 0.28,3.74 0.75,10.99 4.46,13.22 3.93,2.36 7.51,-0.9 11.5,-2.64 l 0.21,0.19 0.05,-0.3 c 4.98,-2.15 11.87,-4.56 21.54,-5.65 24.66,-2.75 51.95,3.16 58.1,2.32 4.78,-0.66 6.25,-15.49 5.87,-31.53 8.77,5.56 11.63,16.54 19.52,22.96 4.25,3.47 6.12,3.57 6.04,9.29 -0.06,3.71 -0.31,7.05 -0.34,10.77 6.32,1.86 11.64,-22.41 16.84,-40.93 6.03,-21.44 13.54,-45.64 5.08,-67.42 -4.71,-12.12 -12.48,-22.75 -19.62,-33.61 -12.31,-18.74 -23.13,-39.27 -25.27,-61.58 -0.95,-9.77 -0.2,-19.689 -1.59,-29.408 -4.85,-33.863 -28.07,-60.492 -60.73,-70.692 -42.44,-13.261 -106.17,-11.191 -143.57,18.5 -13.09,10.391 -8.64,32.25 -2.47,43.68"/>
      <path id="path162" style="fill:#f6879f;fill-opacity:1;fill-rule:nonzero;stroke:none" d="m 3767.38,1208.49 c -33.71,-26.19 -74.41,-41.64 -115.88,-22.73 l -9.7,259.34 139.69,-25.11 -14.11,-211.5"/>
      <path id="path164" style="fill:#273e47;fill-opacity:1;fill-rule:nonzero;stroke:none" d="m 3441.02,1097.09 c 9.26,2.94 18.41,6.25 27.44,9.84 25.27,10.05 49.62,22.37 72.91,36.38 10.29,6.18 20.37,12.7 30.21,19.58 10.34,7.22 19.9,15.24 29.71,23.17 5.18,4.21 9.97,10.03 14.18,15.2 8.38,10.31 15.44,21.72 20.91,33.84 1.21,2.7 2.56,5.66 5.24,6.92 3.16,1.51 6.95,0.02 9.81,-2 2.53,-1.77 4.8,-3.97 7.66,-5.21 2.7,-1.18 5.5,-2.25 8.22,-3.38 8.74,-3.64 18,-5.89 27.43,-6.73 35.33,-3.16 36.48,3.94 38.01,-7.46 0.37,-2.78 0.51,-7.36 0.28,-12.78 18.66,3.09 33.35,9.12 34.16,16.18 l 2.26,22.62 c 18.58,1.67 19.83,-31.59 25.94,-68.96 4.94,-30.24 12.18,-52.15 3.87,-74.39 -28.12,-24.56 -77.7,-18.6 -105.95,-23.27 -39.96,-6.6 -58.66,-36.17 -114.22,-55.39 -89.56,-31 -146.12,4.75 -162.91,20.34 -11.1,19.84 -13.31,43.33 24.84,55.5"/>
      <path id="path166" style="fill:#17282f;fill-opacity:1;fill-rule:nonzero;stroke:none" d="m 4118.5,2741.9 c 7.07,-109.85 19.98,-271.15 24.47,-398.21 8.45,-238.86 5.16,-511.07 5.16,-511.07 0,0 23.19,-85.4 25.72,-153.07 5.71,-152.57 4.62,-495.19 4.62,-495.19 0,0 -63.21,-63.71 -157.9,-13.66 0,0 -83.83,480.35 -107.29,630.82 -22.38,143.45 -66.08,430.37 -66.08,430.37 l -19.77,-407.25 c 0,0 23.15,-82.92 14.89,-195.46 -5.14,-69.88 -45.03,-415.08 -45.03,-415.08 -36.36,-34.11 -142.41,-15.56 -165.57,11.56 0,0 -37.14,510.1 -41.26,583.78 -8.92,159.38 -32.61,753.42 -20.77,845.68 11.86,92.27 548.81,86.78 548.81,86.78"/>
      <path id="path168" style="fill:#040606;fill-opacity:1;fill-rule:nonzero;stroke:none" d="m 3847.2,2231.89 -27.74,183.78 c 0,0 -76.38,14.45 -132.09,55.82 0,0 21.69,-49.1 106.06,-84.13 l 27.43,-171.15 6.57,-391.57 19.77,407.25"/>
      <path id="path170" style="fill:#17282f;fill-opacity:1;fill-rule:nonzero;stroke:none" d="m 4073.52,3514.73 c -4.45,-0.19 -8.83,0.17 -12.64,1.15 -2.96,0.75 -16.05,7.38 -9.38,10.33 5.16,2.3 14.08,-2.79 17.72,-6.07 1.74,-1.57 3.11,-3.44 4.3,-5.41 z m 20.88,41.5 c -6.64,-1.83 -13.36,-0.86 -19.34,3.14 -4.18,2.81 -8.79,6.9 -1.36,7.46 7.81,0.57 15.25,-4.29 20.7,-10.6 z m -91.31,-76.81 c 5.09,-20.71 40.31,-17.54 55.62,-13.66 18.93,4.8 32.96,21.65 30.62,41.21 7.96,2.42 15.31,6.45 20.46,12.52 8.6,10.14 7.22,23.15 1.44,34.12 12.51,9.44 20.23,24.89 17.41,40.46 -2.01,11.11 -8.59,21.55 -17.2,28.13 -7.31,5.59 -20.91,12.3 -30.66,10.92 -3.61,-0.52 -7.19,-7.27 -1.98,-7.8 6.86,-0.7 17.01,-5.56 22.33,-9.66 5.84,-4.52 12.67,-11.28 15.16,-19.2 4.14,-13.14 -0.66,-26.17 -10.77,-34.35 -1.92,2.3 -3.95,4.46 -6.15,6.28 -7.18,5.93 -15.9,9.75 -25.33,8.95 -6.53,-0.55 -14.58,-3.41 -16.73,-10.34 -2.42,-7.83 5.67,-14.44 11.66,-17.86 8.92,-5.07 19.28,-5.78 28.96,-2.6 l 2.25,0.96 c 0.53,-1.06 1.05,-2.13 1.45,-3.17 5.39,-14.38 -3.27,-23.27 -15.06,-27.24 -7.03,14.64 -26.24,25.36 -41.66,17.68 -8.85,-4.4 -9.86,-13.95 -3.55,-21.16 5.74,-6.56 15.29,-8.91 23.65,-9.41 3.85,-0.23 7.96,-0.14 12.11,0.31 0.83,-6.36 -0.51,-13.02 -4.24,-18.38 -6.49,-9.32 -18.44,-11.52 -29.05,-12.31 -13.75,-1.02 -23.43,2.83 -34.34,10.9 -3.01,2.23 -7.15,-2.22 -6.4,-5.3"/>
      <path id="path172" style="fill:#17282f;fill-opacity:1;fill-rule:nonzero;stroke:none" d="m 4027.41,3866.2 c 0,0 2.52,-0.36 6.48,-1.36 -2.72,13.95 3.38,27.97 15.98,33.73 15.16,6.93 33.75,-0.69 41.53,-17.03 l -45.25,-20.7 c 12.04,-4.82 26.79,-13.64 34.45,-29.4 12.41,-25.51 -3.94,-79.86 -20.49,-146.98 -16.54,-67.12 -25.53,-96.12 -36.5,-124.35 -7.6,-19.53 -21.26,-20.15 -21.26,-20.15 l 0.01,66.97 2.87,55.5 c 0,0 -35.62,48.64 -39.54,88.51 -5.03,51.32 5.77,72.32 5.77,72.32 l 55.95,42.94"/>
      <path id="path174" style="fill:#17282f;fill-opacity:1;fill-rule:nonzero;stroke:none" d="m 3781.16,3923.75 c 62.36,-0.2 112.75,-50.92 112.56,-113.28 -0.21,-62.36 -50.93,-112.76 -113.29,-112.56 -62.37,0.21 -112.76,50.93 -112.56,113.29 0.2,62.37 50.93,112.76 113.29,112.55"/>
      <path id="path176" style="fill-opacity: 1; fill-rule: nonzero; stroke: none; fill: rgb(236, 182, 194);" d="m 4003.14,3671.29 c 13.38,-11.61 24.28,18.43 35.54,30.14 11.27,11.71 47.97,27.64 66.12,-10.94 18.51,-39.32 -16.81,-92.72 -44.24,-105.45 -40.19,-18.63 -58.21,21.89 -58.21,21.89 V 3439.4 c -42.32,-76.25 -133.87,-58.42 -177.14,-69.1 -7.86,30.91 -4.75,42.61 -0.24,59.74 l 0.32,54.59 c 0,0 -33.34,-6.42 -55.3,-2.95 -36.55,5.77 -56.15,35.87 -67.11,75.49 -17.61,63.63 -21.24,170.47 3.22,294.02 40.94,31.66 179.46,26.52 265.36,-27.93 -6.29,-109.58 18.29,-140.37 31.68,-151.97"/>
      <path id="path178" style="fill:#f47089;fill-opacity:1;fill-rule:nonzero;stroke:none" d="m 3825.28,3484.63 c 0,0 81.68,16.18 110.27,31.25 19.13,10.1 34.92,27.65 39.57,38.91 0,0 -5.42,-24.2 -22.56,-45.97 -20.95,-26.6 -127.35,-45.91 -127.35,-45.91 l 0.07,21.72"/>
      <path id="path180" style="fill:#17282f;fill-opacity:1;fill-rule:nonzero;stroke:none" d="m 3675.08,3732.62 c 1.48,1.36 3.57,2.83 6.52,3.94 l 0.49,0.24 c 0.87,0.37 1.84,0.74 2.83,1.11 l 1.72,0.49 1.47,0.37 0.99,0.25 0.37,0.12 1.47,0.25 c 1.85,0.36 3.94,0.73 6.03,0.86 1.1,0.12 2.21,0.24 3.32,0.24 l 1.96,0.13 1.6,0.12 c 1.35,0 2.71,0 4.18,-0.12 h 1.48 l 1.47,-0.13 c 3.81,-0.24 7.87,-0.61 12.18,-1.35 18.68,-3.07 38.12,-12.17 43.04,-20.04 5.04,-7.75 3.55,-23.73 0.85,-37.5 -0.62,-2.71 -1.35,-5.78 -2.58,-9.1 l -0.25,-0.74 -0.37,-0.98 -0.24,-0.62 -0.49,-1.11 -1.11,-2.21 -0.99,-1.96 -0.36,-0.62 -0.86,-1.35 -0.74,-1.11 v -0.12 c -6.76,-9.84 -18.57,-18.32 -39.46,-17.09 -7.88,0.37 -14.4,2.34 -19.68,5.16 -18.45,9.84 -22.75,30.86 -24.84,40.58 -2.58,12.54 -5.65,37.13 0,42.29 z m 154.56,-15.86 c 1.47,2.09 4.3,4.18 7.87,6.15 l 1.47,0.74 0.74,0.49 c 1.22,0.49 2.58,1.11 3.93,1.72 1.11,0.49 2.33,0.86 3.57,1.35 3.68,1.36 7.62,2.46 11.8,3.45 1.47,0.37 3.08,0.73 4.68,0.98 3.93,0.74 7.99,1.35 12.05,1.72 0.97,0 1.83,0.12 2.82,0.12 26.31,1.6 42.67,-4.91 48.45,-10.44 6.14,-5.66 2.82,-30 0.12,-42.3 l -0.25,-0.86 -0.24,-0.99 c -0.25,-1.47 -0.75,-3.19 -1.23,-4.91 -0.25,-0.99 -0.49,-2.1 -0.86,-3.08 v -0.12 c -0.62,-1.73 -1.23,-3.44 -1.98,-5.17 l -0.73,-1.72 -0.49,-1.1 -0.49,-1.11 -0.74,-1.48 -0.98,-1.59 -1.11,-1.73 -1.11,-1.72 c -6.76,-9.34 -17.95,-17.09 -37.13,-16.72 -19.05,0.49 -30.99,7.26 -38.6,15.61 -7.63,8.37 -10.83,18.33 -12.3,25.21 -2.96,13.9 -4.55,30.13 0.74,37.5 z m -179.52,20.66 c 0.36,-7.5 5.04,-14.63 7.5,-17.58 1.23,-1.6 2.34,-3.69 2.95,-6.27 2.71,-11.93 4.67,-34.55 10.09,-47.22 5.4,-12.79 16.84,-33.07 49.91,-34.42 6.52,-0.38 12.18,0.12 17.22,1.1 l 1.35,0.25 c 5.41,1.1 10.08,2.95 14.14,5.16 l 0.86,0.49 1.23,0.74 1.47,1.11 1.36,0.98 1.6,1.23 1.48,1.23 c 0.97,0.86 1.84,1.72 2.82,2.71 4.92,5.16 8.6,11.43 11.56,17.7 7.62,16.23 6.14,39.35 18.19,41.68 l 1.48,0.25 h 1.6 c 16.35,-0.62 14.01,-25.58 22.74,-43.65 8.73,-18.07 23.61,-35.91 59.03,-37.01 1.59,-0.13 3.07,-0.13 4.55,-0.13 1.22,0 2.45,0.13 3.68,0.25 3.08,0.12 5.91,0.5 8.49,0.98 0.98,0.25 1.84,0.38 2.7,0.62 l 2.58,0.61 1.6,0.5 c 3.69,1.23 6.89,2.7 9.72,4.3 1.1,0.74 2.2,1.35 3.32,2.09 1.96,1.48 3.81,3.08 5.53,4.79 5.53,5.41 8.85,11.44 11.07,16.48 5.77,12.3 7.74,34.68 10.69,46.36 0.74,3.07 1.72,5.29 2.83,6.76 2.33,3.32 7.87,9.1 8.24,16.6 0.37,7.62 -4.8,14.26 -9.59,15 -2.71,0.49 -5.66,0.86 -8.61,1.35 -27.91,3.93 -64.3,6.15 -86.2,0.61 -27.54,-6.88 -37.24,-15.49 -52.5,-15 -14.14,0.62 -23.23,9.97 -49.05,18.94 -20.54,7.13 -54.6,7.5 -80.66,5.65 -2.83,-0.12 -5.41,-0.36 -8.12,-0.61 -4.42,-0.49 -9.22,-7.13 -8.85,-14.63"/>
      <path id="path182" style="fill:#17282f;fill-opacity:1;fill-rule:nonzero;stroke:none" d="m 3942.25,3740.69 119.55,-26.9 c 0,0 -14.43,-2.46 -27.52,-17.75 l -92.13,17.47 0.1,27.18"/>
      <path id="path184" style="fill:#273e47;fill-opacity:1;fill-rule:nonzero;stroke:none" d="m 3675.08,3690.33 c 2.09,-9.72 6.39,-30.74 24.84,-40.58 5.28,-2.82 11.8,-4.79 19.68,-5.16 20.89,-1.23 32.7,7.25 39.46,17.09 v 0.12 l 0.74,1.11 0.86,1.35 0.36,0.62 0.99,1.96 1.11,2.21 0.49,1.11 0.24,0.62 0.37,0.98 0.25,0.74 c 1.23,3.32 1.96,6.39 2.58,9.1 2.7,13.77 4.19,29.75 -0.85,37.5 -4.92,7.87 -24.36,16.97 -43.04,20.04 -4.31,0.74 -8.37,1.11 -12.18,1.35 l -1.47,0.13 h -1.48 c -1.47,0.12 -2.83,0.12 -4.18,0.12 l -1.6,-0.12 -1.96,-0.13 c -1.11,0 -2.22,-0.12 -3.32,-0.24 -2.09,-0.13 -4.18,-0.5 -6.03,-0.86 l -1.47,-0.25 -0.37,-0.12 -0.99,-0.25 -1.47,-0.37 -1.72,-0.49 c -0.99,-0.37 -1.96,-0.74 -2.83,-1.11 l -0.49,-0.24 c -2.95,-1.11 -5.04,-2.58 -6.52,-3.94 -5.65,-5.16 -2.58,-29.75 0,-42.29"/>
      <path id="path186" style="fill:#273e47;fill-opacity:1;fill-rule:nonzero;stroke:none" d="m 3828.9,3679.26 c 1.47,-6.88 4.67,-16.84 12.3,-25.21 7.61,-8.35 19.55,-15.12 38.6,-15.61 19.18,-0.37 30.37,7.38 37.13,16.72 l 1.11,1.72 1.11,1.73 0.98,1.59 0.74,1.48 0.49,1.11 0.49,1.1 0.73,1.72 c 0.75,1.73 1.36,3.44 1.98,5.17 v 0.12 c 0.37,0.98 0.61,2.09 0.86,3.08 0.48,1.72 0.98,3.44 1.23,4.91 l 0.24,0.99 0.25,0.86 c 2.7,12.3 6.02,36.64 -0.12,42.3 -5.78,5.53 -22.14,12.04 -48.45,10.44 -0.99,0 -1.85,-0.12 -2.82,-0.12 -4.06,-0.37 -8.12,-0.98 -12.05,-1.72 -1.6,-0.25 -3.21,-0.61 -4.68,-0.98 -4.18,-0.99 -8.12,-2.09 -11.8,-3.45 -1.24,-0.49 -2.46,-0.86 -3.57,-1.35 -1.35,-0.61 -2.71,-1.23 -3.93,-1.72 l -0.74,-0.49 -1.47,-0.74 c -3.57,-1.97 -6.4,-4.06 -7.87,-6.15 -5.29,-7.37 -3.7,-23.6 -0.74,-37.5"/>
      <path id="path188" style="fill:#17282f;fill-opacity:1;fill-rule:nonzero;stroke:none" d="m 3678.3,3938.54 c 0.14,1.37 0.32,2.75 0.52,4.12 0.38,2.54 0.9,5.23 2.68,7.08 5.51,5.73 16.49,-8.64 20.43,-11.99 3.77,-3.22 7.64,-6.34 11.71,-9.16 1.3,-0.9 10.89,-5.59 10.99,-6.55 -1.47,13.6 -3.47,27.57 -0.07,41.17 1.62,9.02 4.17,29.88 15.32,32.11 6.64,1.32 12.43,-4.22 17.37,-8.85 44.7,-41.83 103.04,-22.47 156.9,-24.19 45.02,-1.44 99.35,-19.76 119.68,-63.55 9.31,-20.03 10.91,-41.14 -7.48,-55 -11.87,-8.93 -23.48,-8.51 -30.12,-22.81 -1.63,-3.51 -11.92,-46.13 -5.84,-45.7 -22.96,-1.61 -44.9,11.89 -50.18,34.29 -1.1,4.67 -3.61,13.14 -4.64,17.93 -1.5,7.07 -7.36,8.98 -12.86,7.79 -13.65,-2.93 -22.56,-8.52 -35.5,-12.07 -34.99,-9.59 -77.79,-13.89 -113.35,-6.68 -26.69,5.4 -52.49,18.24 -71.24,38.23 -20.48,21.84 -27.54,54.44 -24.32,83.83"/>
      <path id="path190" style="fill:#17282f;fill-opacity:1;fill-rule:nonzero;stroke:none" d="m 3854.06,3762.78 39.49,-6.13 c 1.4,11.21 -6.32,21.68 -17.22,23.37 -10.9,1.69 -20.88,-6.02 -22.27,-17.24"/>
      <path id="path192" style="fill:#f47089;fill-opacity:1;fill-rule:nonzero;stroke:none" d="m 3844.8,3578.96 -33.27,-8.63 c 2.21,-9.51 11.44,-15.29 20.62,-12.9 9.19,2.39 14.86,12.03 12.65,21.53"/>
      <path id="path194" style="fill:#17282f;fill-opacity:1;fill-rule:nonzero;stroke:none" d="m 3704.21,3760.53 40.02,4.39 c -0.8,11.19 -10.41,19.28 -21.46,18.06 -11.06,-1.21 -19.38,-11.26 -18.56,-22.45"/>
      <path id="path196" style="fill:#f47089;fill-opacity:1;fill-rule:nonzero;stroke:none" d="m 3801.64,3705.51 -5.4,-93.32 -52.01,13.58 51.85,80.78 c 1.81,0.1 3.66,-0.26 5.56,-1.04"/>
      <path id="path198" style="fill:#17282f;fill-opacity:1;fill-rule:nonzero;stroke:none" d="m 4024.66,3640.7 c 0,-13.43 10.88,-24.32 24.32,-24.32 13.43,0 24.32,10.89 24.32,24.32 0,13.43 -10.89,24.32 -24.32,24.32 -13.44,0 -24.32,-10.89 -24.32,-24.32"/>
      <path id="path200" style="fill:#17282f;fill-opacity:1;fill-rule:nonzero;stroke:none" d="m 4022.01,3685.18 c 2.31,6.73 5.7,14.51 10.78,19.64 4.38,4.43 12.86,7.68 19.32,6.61 l 0.31,-1.07 c -2.66,-1.61 -4.61,-2.44 -7.26,-4.33 -2.58,-1.85 -5.37,-3.95 -7.48,-6.32 -1.99,-2.24 -3.48,-4.91 -4.68,-7.61 -1.3,-2.97 -2.61,-7.09 -2.81,-10.34 -0.38,-6.52 0,-10.65 2.35,-16.02 1.21,-2.77 2.52,-5.39 4.59,-7.62 1.76,-1.93 4.23,-3.57 5.38,-5.97 1.48,-3.08 -2.77,-8.35 -6.13,-6.54 -6.5,3.48 -10.57,10.19 -13.23,16.82 -2.99,7.49 -3.8,15.04 -1.14,22.75"/>
      <path id="path202" style="fill:#33535f;fill-opacity:1;fill-rule:nonzero;stroke:none" d="m 3675.44,3352.94 c -33.84,-22.11 -80.48,-50.95 -91.89,-82.22 -11.4,-31.27 -44.3,-212.82 -47.95,-271.3 0,0 49.21,-23.96 95.03,-26.81 l 44.81,380.33"/>
      <path id="path204" style="fill:#273e47;fill-opacity:1;fill-rule:nonzero;stroke:none" d="m 4074.72,3439.44 c 85.62,-46.92 170.44,-117.16 188.2,-144.17 0,0 -50.11,-166.74 -94.1,-245.8 -43.98,-79.07 -67.65,-313.01 -67.65,-313.01 0,0 -301.62,-100.1 -396.15,-107.89 -94.53,-7.79 -106.52,32.32 -106.52,32.32 0,0 -1.97,261.45 19.73,436.01 21.7,174.55 17.21,226.4 57.21,256.04 25.85,19.17 137.46,67.54 137.46,67.54 0,0 0,-22.85 0,-50.18 61.33,-0.98 261.82,69.14 261.82,69.14"/>
      <path id="path206" style="fill:#26b6a6;fill-opacity:1;fill-rule:nonzero;stroke:none" d="m 3789.72,3343.55 c 0,0 -8.18,14.08 -6.42,36.45 l 25.19,18.33 0.43,-31.78 -19.2,-23"/>
      <path id="path208" style="fill-opacity: 1; fill-rule: nonzero; stroke: none; fill: rgb(29, 117, 179);" d="m 3789.72,3343.55 c 0,0 -6.66,11.46 -6.67,30.14 0,2.02 0.08,4.13 0.25,6.31 l 25.19,18.33 0.43,-31.78 -19.2,-23"/>
      <path id="path210" style="fill:#26b6a6;fill-opacity:1;fill-rule:nonzero;stroke:none" d="m 3838.68,3362.94 65.27,37.23 48.92,-38.83 -98.98,-41.08 -15.21,42.68"/>
      <path id="path212" style="fill-opacity: 1; fill-rule: nonzero; stroke: none; fill: rgb(29, 117, 179);" d="m 3853.89,3320.26 -15.21,42.68 65.27,37.23 48.92,-38.83 -98.98,-41.08"/>
      <path id="path214" style="fill:#33535f;fill-opacity:1;fill-rule:nonzero;stroke:none" d="m 4002.35,3510.27 v -13.15 c -2.5,-12.53 -27.1,-41.49 -89.2,-69.35 -63.2,-28.36 -87.94,-57.47 -87.94,-57.47 0,0 23.53,0.1 49.23,-9.11 28.26,-10.12 75.24,-45.97 88.65,-45.63 13.05,0.32 31.88,37.38 67.06,74.28 29.56,31 44.57,49.61 44.57,49.61 0,0 -48.24,70.55 -72.37,70.82"/>
      <path id="path216" style="fill-opacity: 1; fill-rule: nonzero; stroke: none; fill: rgb(51, 83, 95);" d="m 3825.21,3370.3 c -22.45,-2.54 -43.54,-18.13 -49.05,-9.87 -5.5,8.25 13.58,83.39 48.89,106.24 l 0.16,-96.37"/>
      <path id="path218" style="fill-opacity: 1; fill-rule: nonzero; stroke: none; fill: rgb(236, 182, 194);" d="m 3607.26,2975.7 c 0,0 -2.76,-46.73 -3.47,-62.69 -0.73,-15.95 26.08,-290.23 26.08,-290.23 l -94.27,-39.84 c 0,0 -11.37,105.6 -15.08,164.45 -3.7,58.86 0.72,131.3 8.13,181.34 7.41,50.04 10.15,69.2 10.15,69.2 25.31,-11.72 48.55,-17.45 68.46,-22.23"/>
      <path id="path220" style="fill-opacity: 1; fill-rule: nonzero; stroke: none; fill: rgb(236, 182, 194);" d="m 3543.18,2449.11 c 0,0 -0.11,-4.24 0.08,-20.2 0.18,-15.96 9.8,-63.06 15.71,-77.84 5.91,-14.76 20.25,-47.25 27.42,-51.05 8.4,-4.44 14.06,-4.93 23.02,-4.09 14.94,1.38 30.53,-6.31 44.62,0.45 5.51,2.65 10.69,6.17 16.64,7.59 8.79,2.1 18.78,-0.51 26.56,4.08 4.97,2.93 8.09,8.32 13.01,11.33 7.21,4.39 16.7,2.79 24.38,6.3 6.17,2.84 10.52,8.78 12.67,15.22 4.43,13.21 0.11,28.04 -2.59,41.25 0,0 6.33,7.18 6.75,22.36 0.42,15.19 -2.53,40.93 -5.91,50.63 -3.38,9.71 -71.73,48.95 -71.73,48.95 l -13.49,8.85 c 0,0 -44.31,11.82 -83.97,-13.5 -39.65,-25.31 -33.17,-50.33 -33.17,-50.33"/>
      <path id="path222" style="fill:#f47089;fill-opacity:1;fill-rule:nonzero;stroke:none" d="m 3561.68,2450.98 c -18.07,-30.13 -7.45,-84.07 -7.39,-84.7 -5.69,20.54 -10.89,50.39 -11.03,62.63 -0.19,15.96 -0.08,20.2 -0.08,20.2 0,0 -6.48,25.02 33.17,50.33 39.67,25.32 83.97,13.5 83.97,13.5 0,0 -80.47,-31.67 -98.64,-61.96"/>
      <path id="path224" style="fill:#f47089;fill-opacity:1;fill-rule:nonzero;stroke:none" d="m 3744.7,2382.15 c -5.48,18.57 -21.52,46.62 -29.11,53.69 -7.6,7.07 -13.92,15.93 -6.33,12.97 7.59,-2.95 18.14,-4.73 22.36,0.59 4.22,5.32 5.07,-3.96 0.42,-11.13 -4.64,-7.18 -0.84,-12.66 4.65,-24.48 5.47,-11.81 6.79,-24.97 8.01,-31.64"/>
      <path id="path226" style="fill-opacity: 1; fill-rule: nonzero; stroke: none; fill: rgb(236, 182, 194);" d="m 4236.77,3291.95 c 28.51,-9.82 32.32,-87.97 26.15,-157.92 -6.19,-69.95 -60.76,-235.54 -85.68,-293.17 -27.94,-64.63 -44.86,-102 -63.44,-122.3 -18.57,-20.32 -57.48,-36.94 -107.24,-62.73 -45.09,-23.37 -75.88,-35.15 -152.6,-58.96 -86.59,-26.88 -119.82,-28.53 -138.4,-41.4 -18.57,-12.86 -23.64,-40.93 -41.75,-51.38 l -13.49,8.85 c -23.53,-4.73 -62.87,-20.42 -86.13,-35.93 -22.05,-14.7 -31.01,-27.9 -31.01,-27.9 l 0.08,-20.2 c 0,0 -21.95,-9.28 -40.52,30.13 -18.58,39.4 -27.16,97.99 -5.72,123.71 21.43,25.73 89.15,60.52 143.89,78.13 54.74,17.62 82.31,35.2 146.52,74.01 68.4,41.34 115.85,68.82 149.65,87.4 12.97,7.45 21.66,16.6 27.43,40.44 4.57,18.87 18.33,74.48 26.75,116.24 13.97,69.38 44.06,280.77 245.51,312.98"/>
      <path id="path228" style="fill:#33535f;fill-opacity:1;fill-rule:nonzero;stroke:none" d="m 4262.92,3295.27 c 0,0 13.27,-2.34 15.11,-57.67 1.85,-55.33 -0.34,-114.38 -7.56,-156.88 -7.21,-42.51 -49.68,-168.09 -49.68,-168.09 0,0 -122.72,-40.24 -248.3,7.77 0,0 29.55,180.99 40.63,229 11.08,48.02 166.34,196.07 249.8,145.87"/>
      <path id="path230" style="fill-opacity: 1; fill-rule: nonzero; stroke: none; fill: rgb(29, 117, 179);" d="m 3828.75,3291.66 c -6.99,-44.96 -16.68,-151.89 -16.68,-302.78 0,-37 -53.98,-112.07 -66.68,-110.48 -12.7,1.6 -35.99,72.21 -39.29,113.17 5.12,99.19 65.09,253.11 91.29,305.67 l 31.36,-5.58"/>
      <path id="path232" style="fill:#1f3239;fill-opacity:1;fill-rule:nonzero;stroke:none" d="m 3826.9,3278.73 c 0.63,4.76 1.25,9.07 1.85,12.93 v 0 l -1.85,-12.93 m -29.59,18.35 c 0.02,0.05 0.05,0.11 0.08,0.16 -0.03,-0.05 -0.06,-0.11 -0.08,-0.16"/>
      <path id="path234" style="fill-opacity: 1; fill-rule: nonzero; stroke: none; fill: rgb(25, 106, 177);" d="m 3826.86,3278.48 c -12.87,0.71 -27.3,9.63 -31.46,14.48 0.63,1.43 1.28,2.85 1.91,4.12 0.02,0.05 0.05,0.11 0.08,0.16 v 0 l 31.36,-5.58 c -0.6,-3.86 -1.22,-8.17 -1.85,-12.93 l -0.04,-0.25"/>
      <path id="path236" style="fill-opacity: 1; fill-rule: nonzero; stroke: none; fill: rgb(38, 110, 182);" d="m 3838.68,3362.94 c -13.47,3.61 -29.76,3.61 -29.76,3.61 0,0 -11.77,-8.51 -19.2,-23 0,0 -1.66,-27.87 7.67,-46.31 0,0 11.57,-9.76 31.36,-5.58 0,0 18.76,11.33 25.14,28.6 2.04,15.13 -8.51,37.78 -15.21,42.68"/>
    </g>
  </g>
</svg>