<svg xmlns="http://www.w3.org/2000/svg" version="1.1" xmlns:xlink="http://www.w3.org/1999/xlink" xmlns:svgjs="http://svgjs.com/svgjs" width="1440" height="560" preserveAspectRatio="none" viewBox="0 0 1440 560"><g mask="url(&quot;#SvgjsMask1006&quot;)" fill="none"><rect width="1440" height="560" x="0" y="0" fill="#0e2a47"></rect><path d="M0,498.094C107.685,494.563,225.668,550.432,316.635,492.694C407.625,434.941,411.186,306.258,456.383,208.423C501.825,110.058,603.006,22.667,582.968,-83.818C562.891,-190.511,420.517,-221.564,358.679,-310.798C285.378,-416.574,304.518,-589.533,190.784,-649.751C79.751,-708.539,-62.616,-650.835,-174.084,-592.875C-274.938,-540.434,-319.022,-426.706,-397.084,-344.075C-479.76,-256.559,-621.598,-210.75,-646.375,-92.935C-671.142,24.829,-574.919,130.439,-519.324,237.167C-466.645,338.296,-432.158,462.715,-330.269,513.908C-229.749,564.413,-112.434,501.781,0,498.094" fill="#091b2e"></path><path d="M1440 1099.0839999999998C1568.223 1101.702 1700.774 1202.04 1814.434 1142.6309999999999 1927.537 1083.513 1958.089 934.829 1990.437 811.376 2018.9070000000002 702.723 2016.1480000000001 589.915 1987.733 481.248 1961.5140000000001 380.98 1904.113 294.965 1835.167 217.586 1767.012 141.096 1689.9180000000001 72.05900000000003 1593.153 38.40999999999997 1493.429 3.731999999999971 1384.839-2.5720000000000027 1283.088 25.60699999999997 1180.414 54.041 1103.539 129.594 1020.935 196.878 920.997 278.28 765.101 332.76300000000003 748.987 460.647 732.819 588.957 889.962 669.071 946.797 785.238 1001.4639999999999 896.973 970.3199999999999 1060.758 1075.2649999999999 1127.539 1180.276 1194.362 1315.557 1096.5430000000001 1440 1099.0839999999998" fill="#133960"></path></g><defs><mask id="SvgjsMask1006"><rect width="1440" height="560" fill="#ffffff"></rect></mask></defs></svg>