<svg xmlns="http://www.w3.org/2000/svg" version="1.1" xmlns:xlink="http://www.w3.org/1999/xlink" xmlns:svgjs="http://svgjs.com/svgjs" width="1440" height="560" preserveAspectRatio="none" viewBox="0 0 1440 560"><g mask="url(&quot;#SvgjsMask1005&quot;)" fill="none"><rect width="1440" height="560" x="0" y="0" fill="#0e2a47"></rect><path d="M 0,58 C 57.6,98.6 172.8,248 288,261 C 403.2,274 460.8,126.8 576,123 C 691.2,119.2 748.8,247.8 864,242 C 979.2,236.2 1036.8,111.4 1152,94 C 1267.2,76.6 1382.4,142.8 1440,155L1440 560L0 560z" fill="#184a7e"></path><path d="M 0,559 C 96,503.6 288,292.2 480,282 C 672,271.8 768,492.6 960,508 C 1152,523.4 1344,388.8 1440,359L1440 560L0 560z" fill="#2264ab"></path></g><defs><mask id="SvgjsMask1005"><rect width="1440" height="560" fill="#ffffff"></rect></mask></defs></svg>